<svg width="678" height="451" viewBox="0 0 678 451" fill="none" xmlns="http://www.w3.org/2000/svg">
<rect width="678" height="451"/>
<g clip-path="url(#clip0)">
<path d="M392.559 79.186C391.151 79.1389 389.717 79.1152 388.296 79.1152V77.6871C389.733 77.6871 391.182 77.7111 392.606 77.7585L392.559 79.186Z" fill="#E6E6E6"/>
<path d="M388.296 331.897C386.375 331.897 384.439 331.854 382.539 331.769L382.603 330.342C385.447 330.469 388.36 330.501 391.222 330.435L391.254 331.863C390.271 331.886 389.285 331.897 388.296 331.897ZM399.955 331.37L399.825 329.948C402.68 329.688 405.556 329.327 408.375 328.875L408.601 330.285C405.751 330.742 402.842 331.107 399.955 331.37ZM373.852 331.087C370.972 330.761 368.071 330.332 365.231 329.812L365.489 328.407C368.297 328.921 371.164 329.345 374.012 329.667L373.852 331.087ZM417.153 328.61L416.83 327.218C419.617 326.573 422.417 325.821 425.152 324.984L425.57 326.35C422.803 327.196 419.971 327.957 417.153 328.61ZM356.718 327.947C353.916 327.232 351.101 326.408 348.353 325.5L348.801 324.145C351.519 325.042 354.302 325.856 357.072 326.564L356.718 327.947ZM433.811 323.513L433.299 322.18C435.969 321.156 438.636 320.027 441.225 318.825L441.826 320.121C439.208 321.336 436.511 322.478 433.811 323.513H433.811ZM340.165 322.478C337.481 321.38 334.804 320.175 332.208 318.898L332.84 317.616C335.405 318.879 338.053 320.07 340.707 321.156L340.165 322.478ZM449.592 316.184L448.903 314.933C451.408 313.553 453.897 312.069 456.298 310.522L457.072 311.723C454.643 313.287 452.127 314.788 449.592 316.184V316.184ZM324.519 314.781C322.012 313.325 319.527 311.767 317.132 310.147L317.933 308.964C320.301 310.565 322.758 312.107 325.237 313.546L324.519 314.781ZM464.23 306.76L463.376 305.615C465.67 303.906 467.933 302.096 470.104 300.236L471.035 301.319C468.839 303.201 466.55 305.032 464.23 306.76H464.23ZM310.08 305.019C307.801 303.24 305.552 301.358 303.396 299.425L304.351 298.362C306.482 300.273 308.706 302.134 310.96 303.894L310.08 305.019ZM477.453 295.427L476.452 294.409C478.492 292.403 480.489 290.302 482.388 288.163L483.457 289.111C481.536 291.274 479.516 293.399 477.453 295.427V295.427ZM297.111 293.389C295.093 291.314 293.122 289.144 291.252 286.94L292.342 286.016C294.19 288.196 296.14 290.341 298.135 292.393L297.111 293.389ZM489.017 282.398L487.887 281.525C489.634 279.263 491.327 276.909 492.919 274.528L494.107 275.322C492.497 277.73 490.784 280.111 489.017 282.398H489.017ZM285.847 280.108C284.13 277.78 282.473 275.363 280.922 272.926L282.128 272.159C283.662 274.569 285.3 276.959 286.997 279.262L285.847 280.108ZM498.701 267.911L497.462 267.201C498.887 264.718 500.242 262.153 501.492 259.579L502.777 260.202C501.513 262.806 500.142 265.4 498.701 267.911H498.701ZM276.501 265.425C275.12 262.886 273.809 260.267 272.607 257.641L273.906 257.047C275.095 259.643 276.391 262.233 277.756 264.743L276.501 265.425ZM506.313 252.23L504.988 251.697C506.057 249.04 507.048 246.312 507.932 243.588L509.291 244.029C508.397 246.784 507.396 249.543 506.313 252.23V252.23ZM269.258 249.611C268.237 246.904 267.298 244.127 266.467 241.358L267.836 240.948C268.657 243.686 269.586 246.431 270.595 249.108L269.258 249.611ZM511.691 235.653L510.304 235.307C510.997 232.532 511.601 229.698 512.101 226.884L513.507 227.134C513.002 229.98 512.391 232.846 511.691 235.653V235.653ZM264.254 232.933C263.616 230.113 263.068 227.234 262.627 224.376L264.039 224.157C264.476 226.983 265.017 229.83 265.648 232.618L264.254 232.933ZM514.734 218.511L513.313 218.358C513.618 215.519 513.829 212.63 513.941 209.769L515.368 209.825C515.256 212.717 515.042 215.64 514.734 218.511ZM261.59 215.727C261.346 212.85 261.196 209.924 261.146 207.028L262.575 207.004C262.624 209.867 262.772 212.761 263.014 215.606L261.59 215.727ZM513.984 201.154C513.903 198.292 513.723 195.4 513.449 192.558L514.871 192.421C515.148 195.295 515.33 198.22 515.413 201.114L513.984 201.154ZM512.328 184.019C511.857 181.194 511.284 178.354 510.622 175.576L512.012 175.246C512.681 178.054 513.262 180.927 513.738 183.784L512.328 184.019ZM508.338 167.272C507.486 164.546 506.528 161.814 505.49 159.154L506.821 158.635C507.871 161.326 508.84 164.088 509.701 166.846L508.338 167.272ZM502.088 151.249C500.867 148.662 499.541 146.087 498.148 143.595L499.396 142.898C500.804 145.419 502.145 148.024 503.38 150.64L502.088 151.249ZM493.692 136.227C492.127 133.829 490.461 131.458 488.742 129.179L489.882 128.319C491.621 130.623 493.306 133.021 494.889 135.446L493.692 136.227ZM483.32 122.484C481.446 120.324 479.473 118.201 477.456 116.173L478.469 115.166C480.509 117.217 482.505 119.364 484.4 121.548L483.32 122.484ZM471.173 110.275C469.018 108.387 466.774 106.551 464.501 104.817L465.368 103.682C467.666 105.435 469.936 107.292 472.115 109.201L471.173 110.275ZM457.474 99.8265C455.081 98.2487 452.606 96.7352 450.118 95.3283L450.821 94.0849C453.338 95.5082 455.84 97.0385 458.261 98.6347L457.474 99.8265ZM442.469 91.3447C439.884 90.1091 437.224 88.949 434.563 87.8961L435.09 86.5683C437.781 87.6332 440.471 88.8068 443.086 90.0561L442.469 91.3447ZM426.437 85.0007C423.711 84.1343 420.919 83.3522 418.14 82.6758L418.477 81.2881C421.289 81.9722 424.113 82.7633 426.87 83.6396L426.437 85.0007ZM409.701 80.9286C406.884 80.4461 404.012 80.0545 401.163 79.7651L401.308 78.344C404.189 78.6368 407.094 79.0329 409.943 79.5208L409.701 80.9286Z" fill="#E6E6E6"/>
<path d="M262.726 198.181L261.299 198.107C261.374 196.667 261.474 195.221 261.595 193.809L263.018 193.931C262.899 195.327 262.8 196.757 262.726 198.181Z" fill="#E6E6E6"/>
<path d="M497.248 449.572H136.457V288.906L316.852 369.953L497.248 288.906V449.572Z" fill="#3F3D56"/>
<path d="M136.457 288.906H497.248L317.21 381.735L136.457 288.906Z" fill="#6C63FF"/>
<path d="M317.21 396.73C325.496 396.73 332.213 390.017 332.213 381.735C332.213 373.453 325.496 366.739 317.21 366.739C308.924 366.739 302.207 373.453 302.207 381.735C302.207 390.017 308.924 396.73 317.21 396.73Z" fill="#E6E6E6"/>
<path d="M47.2575 449.23C47.0935 448.962 43.2276 442.511 41.8873 429.113C40.658 416.822 41.4485 396.104 52.1985 367.205C72.5641 312.456 47.5051 268.282 47.2491 267.842L48.4854 267.125C48.5503 267.237 55.0165 278.499 58.8363 296.433C63.8836 320.21 62.0457 344.932 53.5381 367.702C33.2074 422.358 48.3221 448.231 48.477 448.486L47.2575 449.23Z" fill="#3F3D56"/>
<path d="M39.294 264.627C44.4234 264.627 48.5817 260.471 48.5817 255.344C48.5817 250.217 44.4234 246.061 39.294 246.061C34.1645 246.061 30.0063 250.217 30.0063 255.344C30.0063 260.471 34.1645 264.627 39.294 264.627Z" fill="#6C63FF"/>
<path d="M68.5859 298.903C73.7153 298.903 77.8736 294.747 77.8736 289.62C77.8736 284.493 73.7153 280.337 68.5859 280.337C63.4564 280.337 59.2982 284.493 59.2982 289.62C59.2982 294.747 63.4564 298.903 68.5859 298.903Z" fill="#6C63FF"/>
<path d="M48.5817 321.753C53.7111 321.753 57.8694 317.597 57.8694 312.47C57.8694 307.343 53.7111 303.187 48.5817 303.187C43.4522 303.187 39.294 307.343 39.294 312.47C39.294 317.597 43.4522 321.753 48.5817 321.753Z" fill="#6C63FF"/>
<path d="M72.8725 341.033C78.002 341.033 82.1602 336.877 82.1602 331.75C82.1602 326.623 78.002 322.467 72.8725 322.467C67.7431 322.467 63.5848 326.623 63.5848 331.75C63.5848 336.877 67.7431 341.033 72.8725 341.033Z" fill="#6C63FF"/>
<path d="M41.4373 371.024C46.5667 371.024 50.725 366.868 50.725 361.741C50.725 356.614 46.5667 352.458 41.4373 352.458C36.3079 352.458 32.1496 356.614 32.1496 361.741C32.1496 366.868 36.3079 371.024 41.4373 371.024Z" fill="#6C63FF"/>
<path d="M52.8683 449.572C52.8683 449.572 43.5806 426.721 71.4436 409.584L52.8683 449.572Z" fill="#3F3D56"/>
<path d="M41.4459 449.157C41.4459 449.157 37.219 424.858 4.50345 425.066L41.4459 449.157Z" fill="#3F3D56"/>
<path d="M198.97 98.6054C198.941 79.0179 205.491 59.9875 217.572 44.5643C204.598 42.6534 191.361 43.6688 178.832 47.5362C166.302 51.4036 154.797 58.0248 145.161 66.9144C135.524 75.804 128.001 86.7365 123.142 98.9104C118.282 111.084 116.211 124.191 117.079 137.269C117.947 150.347 121.733 163.065 128.158 174.491C134.584 185.916 143.487 195.76 154.214 203.299C164.941 210.838 177.22 215.882 190.151 218.061C203.082 220.24 216.337 219.499 228.944 215.892C245.584 223.116 263.785 226.003 281.845 224.282L253.769 204.315C261.442 199.137 268.252 192.785 273.952 185.492C253.108 182.399 234.071 171.923 220.308 155.975C206.545 140.026 198.972 119.667 198.97 98.6054V98.6054Z" fill="#3F3D56"/>
<path d="M398.298 89.3224C398.298 71.0325 392.585 53.1989 381.957 38.3101C371.328 23.4214 356.315 12.2203 339.011 6.26983C321.707 0.319396 302.977 -0.0834884 285.433 5.11738C267.889 10.3182 252.407 20.8634 241.148 35.2814C256.348 37.533 270.692 43.7293 282.749 53.2521C294.805 62.7748 304.152 75.291 309.857 89.5518C315.562 103.813 317.426 119.319 315.263 134.525C313.099 149.731 306.984 164.104 297.528 176.21C309.946 178.038 322.61 177.203 334.681 173.762C351.32 180.986 369.522 183.873 387.582 182.152L359.506 162.185C371.455 154.152 381.244 143.304 388.009 130.597C394.774 117.891 398.307 103.716 398.298 89.3224Z" fill="#6C63FF"/>
<path d="M229.003 39.5658C219.549 51.6727 213.437 66.0452 211.276 81.2499C209.114 96.4546 210.978 111.96 216.683 126.22C222.388 140.479 231.734 152.995 243.788 162.518C255.842 172.041 270.184 178.239 285.383 180.494C294.839 168.388 300.954 154.015 303.117 138.81C305.281 123.604 303.417 108.097 297.712 93.8362C292.006 79.5754 282.659 67.0592 270.603 57.5365C258.547 48.0138 244.203 41.8175 229.003 39.5658V39.5658Z" fill="#E6E6E6"/>
<path d="M678 449.572H0V451H678V449.572Z" fill="#3F3D56"/>
<path d="M575.939 114.642L571.7 142.835L523.257 175.584C523.257 175.584 497.787 187.783 499.391 195.362C500.82 202.118 520.474 201.319 526.659 190.871L584.576 164.555L603.946 126.228L575.939 114.642Z" fill="#FFB8B8"/>
<path d="M576.193 398.873L578.336 428.864L599.055 427.436L595.483 398.873H576.193Z" fill="#FFB8B8"/>
<path d="M581.908 419.581C581.908 419.581 579.051 408.87 576.193 409.584L571.906 417.439C571.906 417.439 552.616 435.29 546.901 436.004C546.901 436.004 528.326 441.717 546.901 450.286H568.334C568.334 450.286 582.623 449.572 585.481 450.286C588.338 451 604.77 451 605.485 446.716C606.199 442.431 603.341 433.862 603.341 433.862C603.341 433.862 600.707 412.795 597.737 416.902C596.186 419.105 594.477 421.194 592.625 423.151L581.908 419.581Z" fill="#2F2E41"/>
<path d="M629.776 399.23L631.919 429.221L652.638 427.793L649.065 399.23H629.776Z" fill="#FFB8B8"/>
<path d="M635.491 419.938C635.491 419.938 632.633 409.227 629.776 409.941L625.489 417.796C625.489 417.796 606.199 435.647 600.484 436.361C600.484 436.361 581.908 442.074 600.484 450.643H621.917C621.917 450.643 636.206 449.215 639.063 449.929C641.921 450.643 658.353 450.643 659.067 446.359C659.782 442.074 656.924 434.219 656.924 434.219C656.924 434.219 654.289 413.152 651.32 417.259C649.768 419.462 648.06 421.551 646.208 423.508L635.491 419.938Z" fill="#2F2E41"/>
<path d="M548.33 214.999L544.758 219.998V229.995L567.62 314.969L571.906 333.535C571.906 333.535 571.906 404.942 576.193 404.942C580.479 404.942 599.769 407.085 599.769 402.8C599.769 398.516 598.34 301.402 598.34 301.402L617.63 337.82C617.63 337.82 626.203 402.086 629.061 402.8C631.919 403.514 651.923 402.8 653.352 398.516L649.065 357.814C649.065 357.814 649.78 312.113 637.634 302.116C637.634 302.116 635.491 289.977 633.348 284.978C631.204 279.98 627.632 277.123 629.776 273.553C631.919 269.983 626.918 230.709 626.918 230.709C626.918 230.709 628.347 218.569 625.489 214.999C622.631 211.429 548.33 214.999 548.33 214.999Z" fill="#2F2E41"/>
<path d="M594.054 52.9048C606.286 52.9048 616.201 42.994 616.201 30.7685C616.201 18.543 606.286 8.63228 594.054 8.63228C581.822 8.63228 571.906 18.543 571.906 30.7685C571.906 42.994 581.822 52.9048 594.054 52.9048Z" fill="#FFB8B8"/>
<path d="M607.985 43.9788L606.556 58.2603L612.272 63.2588L575.836 80.3965C584.811 65.07 587.469 51.1142 582.98 41.1226L607.985 43.9788Z" fill="#FFB8B8"/>
<path d="M582.98 65.401C582.98 65.401 577.265 76.8262 584.409 73.9699L606.556 58.2603C606.556 58.2603 630.847 67.5432 639.42 78.2543L632.276 153.946L626.561 207.501C626.561 207.501 630.133 213.928 629.418 214.642C628.704 215.356 627.989 213.928 628.704 216.07C629.418 218.212 631.562 216.07 629.418 218.212C627.275 220.355 625.132 218.212 627.275 220.355C629.418 222.497 627.275 223.211 627.275 223.211C627.275 223.211 624.417 206.073 599.412 218.927C574.407 231.78 563.69 235.35 545.115 219.641L566.548 138.236L568.279 107.534C568.857 97.2787 570.683 87.132 573.716 77.3181C575.354 72.0173 578.209 66.8081 582.98 63.9729V65.401Z" fill="white"/>
<path d="M621.202 127.882L631.919 154.303L606.914 207.144C606.914 207.144 601.198 213.571 604.77 221.426C606.616 225.623 608.765 229.68 611.2 233.565C611.2 233.565 617.63 230.709 617.63 218.57L654.066 166.442L651.209 123.598L621.202 127.882Z" fill="#FFB8B8"/>
<path d="M619.773 80.7536C619.773 80.7536 609.771 90.7506 614.058 106.46C618.345 122.17 621.917 134.309 621.917 134.309C621.917 134.309 639.063 121.456 653.352 129.31C653.352 129.31 651.209 82.8958 639.063 78.6114C626.918 74.3269 619.773 80.7536 619.773 80.7536Z" fill="#D0CDE1"/>
<path d="M612.26 11.7788C612.26 11.7788 605.494 -2.87501 592.524 0.506645C579.554 3.8883 572.224 8.96078 571.66 14.0333C571.096 19.1057 571.942 26.7145 571.942 26.7145C571.942 26.7145 573.352 16.2877 582.374 18.5421C591.396 20.7966 605.494 19.1058 605.494 19.1058L607.749 39.3957C607.749 39.3957 611.596 35.2978 614.415 37.5522C617.235 39.8066 621.283 16.2877 612.26 11.7788Z" fill="#2F2E41"/>
<path d="M500.218 171.028L513.405 167.976C514.041 167.828 514.709 167.902 515.298 168.184C515.887 168.466 516.362 168.94 516.646 169.528L530.153 197.524C530.3 197.83 530.379 198.163 530.384 198.502C530.388 198.841 530.319 199.177 530.18 199.486C530.04 199.796 529.835 200.071 529.579 200.292C529.322 200.514 529.02 200.677 528.694 200.77L515.293 204.575C514.575 204.779 513.808 204.715 513.134 204.395C512.461 204.074 511.926 203.52 511.631 202.835L503.013 182.827L502.75 182.972L501.11 179.181L501.382 179.042L498.977 173.456C498.873 173.217 498.825 172.958 498.833 172.698C498.842 172.438 498.908 172.182 499.026 171.951C499.145 171.719 499.313 171.516 499.519 171.356C499.725 171.197 499.964 171.085 500.218 171.028V171.028Z" fill="#3F3D56"/>
<path d="M511.816 169.014L513.356 168.658C513.798 168.556 514.261 168.607 514.67 168.805C515.078 169.002 515.407 169.333 515.601 169.743L528.785 197.56C528.861 197.72 528.902 197.895 528.904 198.072C528.906 198.249 528.87 198.425 528.798 198.587C528.726 198.749 528.62 198.893 528.487 199.011C528.354 199.128 528.197 199.215 528.028 199.266L514.721 203.279C514.346 203.392 513.942 203.364 513.586 203.198C513.231 203.033 512.949 202.742 512.794 202.382L500.32 173.364C500.239 173.176 500.201 172.973 500.207 172.768C500.214 172.564 500.265 172.363 500.357 172.181C500.45 171.999 500.581 171.839 500.742 171.713C500.903 171.587 501.089 171.497 501.289 171.451L502.749 171.113C502.89 171.08 503.038 171.095 503.171 171.155C503.303 171.215 503.411 171.317 503.48 171.445V171.445C503.54 171.558 503.636 171.648 503.752 171.701C503.869 171.754 504 171.767 504.125 171.738L511.057 170.133C511.301 170.076 511.515 169.93 511.656 169.722C511.797 169.515 511.854 169.262 511.816 169.014V169.014Z" fill="#6C63FF"/>
</g>
<defs>
<clipPath id="clip0">
<rect width="678" height="451"/>
</clipPath>
</defs>
</svg>
