<svg width="678" height="451" viewBox="0 0 678 451" fill="none" xmlns="http://www.w3.org/2000/svg">
<rect width="678" height="451"/>
<path d="M285.441 79.186C286.849 79.1389 288.283 79.1152 289.704 79.1152V77.6871C288.267 77.6871 286.818 77.7111 285.394 77.7585L285.441 79.186Z" fill="#E6E6E6"/>
<path d="M289.704 331.897C291.625 331.897 293.561 331.854 295.461 331.769L295.397 330.342C292.553 330.469 289.64 330.501 286.778 330.435L286.746 331.863C287.729 331.886 288.715 331.897 289.704 331.897ZM278.045 331.37L278.175 329.948C275.32 329.688 272.444 329.327 269.625 328.875L269.399 330.285C272.249 330.742 275.158 331.107 278.045 331.37ZM304.148 331.087C307.028 330.761 309.929 330.332 312.769 329.812L312.511 328.407C309.703 328.921 306.836 329.345 303.988 329.667L304.148 331.087ZM260.847 328.61L261.17 327.218C258.383 326.573 255.583 325.821 252.848 324.984L252.43 326.35C255.197 327.196 258.029 327.957 260.847 328.61ZM321.282 327.947C324.084 327.232 326.899 326.408 329.647 325.5L329.199 324.145C326.481 325.042 323.698 325.856 320.928 326.564L321.282 327.947ZM244.189 323.513L244.701 322.18C242.031 321.156 239.364 320.027 236.775 318.825L236.174 320.121C238.792 321.336 241.489 322.478 244.189 323.513ZM337.835 322.478C340.519 321.38 343.196 320.175 345.792 318.898L345.16 317.616C342.595 318.879 339.947 320.07 337.293 321.156L337.835 322.478ZM228.408 316.184L229.097 314.933C226.592 313.553 224.103 312.069 221.702 310.522L220.928 311.723C223.357 313.287 225.873 314.788 228.408 316.184ZM353.481 314.781C355.988 313.325 358.473 311.767 360.868 310.147L360.067 308.964C357.699 310.565 355.242 312.107 352.763 313.546L353.481 314.781ZM213.77 306.76L214.624 305.615C212.33 303.906 210.067 302.096 207.896 300.236L206.965 301.319C209.161 303.201 211.45 305.032 213.77 306.76ZM367.92 305.019C370.199 303.24 372.448 301.358 374.604 299.425L373.649 298.362C371.518 300.273 369.294 302.134 367.04 303.894L367.92 305.019ZM200.547 295.427L201.548 294.409C199.508 292.403 197.511 290.302 195.612 288.163L194.543 289.111C196.464 291.274 198.484 293.399 200.547 295.427ZM380.889 293.389C382.907 291.314 384.878 289.144 386.748 286.94L385.658 286.016C383.81 288.196 381.86 290.341 379.865 292.393L380.889 293.389ZM188.983 282.398L190.113 281.525C188.366 279.263 186.673 276.909 185.081 274.528L183.893 275.322C185.503 277.73 187.216 280.111 188.983 282.398ZM392.153 280.108C393.87 277.78 395.527 275.363 397.078 272.926L395.872 272.159C394.338 274.569 392.7 276.959 391.003 279.262L392.153 280.108ZM179.299 267.911L180.538 267.201C179.113 264.718 177.758 262.153 176.508 259.579L175.223 260.202C176.487 262.806 177.858 265.4 179.299 267.911ZM401.499 265.425C402.88 262.886 404.191 260.267 405.393 257.641L404.094 257.047C402.905 259.643 401.609 262.233 400.244 264.743L401.499 265.425ZM171.687 252.23L173.012 251.697C171.943 249.04 170.952 246.312 170.068 243.588L168.709 244.029C169.603 246.784 170.604 249.543 171.687 252.23ZM408.742 249.611C409.763 246.904 410.702 244.127 411.533 241.358L410.164 240.948C409.343 243.686 408.414 246.431 407.405 249.108L408.742 249.611ZM166.309 235.653L167.696 235.307C167.003 232.532 166.399 229.698 165.899 226.884L164.493 227.134C164.998 229.98 165.609 232.846 166.309 235.653ZM413.746 232.933C414.384 230.113 414.932 227.234 415.373 224.376L413.961 224.157C413.524 226.983 412.983 229.83 412.352 232.618L413.746 232.933ZM163.266 218.511L164.687 218.358C164.382 215.519 164.171 212.63 164.059 209.769L162.632 209.825C162.744 212.717 162.958 215.64 163.266 218.511ZM416.41 215.727C416.654 212.85 416.804 209.924 416.854 207.028L415.425 207.004C415.376 209.867 415.228 212.761 414.986 215.606L416.41 215.727ZM164.016 201.154C164.097 198.292 164.277 195.4 164.551 192.558L163.129 192.421C162.852 195.295 162.67 198.22 162.587 201.114L164.016 201.154ZM165.672 184.019C166.143 181.194 166.716 178.354 167.378 175.576L165.988 175.246C165.319 178.054 164.738 180.927 164.262 183.784L165.672 184.019ZM169.662 167.272C170.514 164.546 171.472 161.814 172.51 159.154L171.179 158.635C170.129 161.326 169.16 164.088 168.299 166.846L169.662 167.272ZM175.912 151.249C177.133 148.662 178.459 146.087 179.852 143.595L178.604 142.898C177.196 145.419 175.855 148.024 174.62 150.64L175.912 151.249ZM184.308 136.227C185.873 133.829 187.539 131.458 189.258 129.179L188.118 128.319C186.379 130.623 184.694 133.021 183.111 135.446L184.308 136.227ZM194.68 122.484C196.554 120.324 198.527 118.201 200.544 116.173L199.531 115.166C197.491 117.217 195.495 119.364 193.6 121.548L194.68 122.484ZM206.827 110.275C208.982 108.387 211.226 106.551 213.499 104.817L212.632 103.682C210.334 105.435 208.064 107.292 205.885 109.201L206.827 110.275ZM220.526 99.8265C222.919 98.2487 225.394 96.7352 227.882 95.3283L227.179 94.0849C224.662 95.5082 222.16 97.0385 219.739 98.6347L220.526 99.8265ZM235.531 91.3447C238.116 90.1091 240.776 88.949 243.437 87.8961L242.91 86.5683C240.219 87.6332 237.529 88.8068 234.914 90.0561L235.531 91.3447ZM251.563 85.0007C254.289 84.1343 257.081 83.3522 259.86 82.6758L259.523 81.2881C256.711 81.9722 253.887 82.7633 251.13 83.6396L251.563 85.0007ZM268.299 80.9286C271.116 80.4461 273.988 80.0545 276.837 79.7651L276.692 78.344C273.811 78.6368 270.906 79.0329 268.057 79.5208L268.299 80.9286Z" fill="#E6E6E6"/>
<path d="M415.274 198.181L416.701 198.107C416.626 196.667 416.526 195.221 416.405 193.809L414.982 193.931C415.101 195.327 415.2 196.757 415.274 198.181Z" fill="#E6E6E6"/>
<path d="M180.752 449.572H541.543V288.906L361.148 369.953L180.752 288.906V449.572Z" fill="#141850"/>
<path d="M541.543 288.906H180.752L360.79 381.735L541.543 288.906Z" fill="#ED7966"/>
<path d="M360.79 396.73C352.504 396.73 345.787 390.017 345.787 381.735C345.787 373.453 352.504 366.739 360.79 366.739C369.076 366.739 375.793 373.453 375.793 381.735C375.793 390.017 369.076 396.73 360.79 396.73Z" fill="#E6E6E6"/>
<path d="M630.742 449.23C630.906 448.962 634.772 442.511 636.113 429.113C637.342 416.822 636.551 396.104 625.801 367.205C605.436 312.456 630.495 268.282 630.751 267.842L629.515 267.125C629.45 267.237 622.983 278.499 619.164 296.433C614.116 320.21 615.954 344.932 624.462 367.702C644.793 422.358 629.678 448.231 629.523 448.486L630.742 449.23Z" fill="#3F3D56"/>
<path d="M638.706 264.627C633.577 264.627 629.418 260.471 629.418 255.344C629.418 250.217 633.577 246.061 638.706 246.061C643.836 246.061 647.994 250.217 647.994 255.344C647.994 260.471 643.836 264.627 638.706 264.627Z" fill="#ED7966"/>
<path d="M609.414 298.903C604.285 298.903 600.126 294.747 600.126 289.62C600.126 284.493 604.285 280.337 609.414 280.337C614.544 280.337 618.702 284.493 618.702 289.62C618.702 294.747 614.544 298.903 609.414 298.903Z" fill="#ED7966"/>
<path d="M629.418 321.753C624.289 321.753 620.131 317.597 620.131 312.47C620.131 307.343 624.289 303.187 629.418 303.187C634.548 303.187 638.706 307.343 638.706 312.47C638.706 317.597 634.548 321.753 629.418 321.753Z" fill="#ED7966"/>
<path d="M605.127 341.033C599.998 341.033 595.84 336.877 595.84 331.75C595.84 326.623 599.998 322.467 605.127 322.467C610.257 322.467 614.415 326.623 614.415 331.75C614.415 336.877 610.257 341.033 605.127 341.033Z" fill="#ED7966"/>
<path d="M636.563 371.024C631.433 371.024 627.275 366.868 627.275 361.741C627.275 356.614 631.433 352.458 636.563 352.458C641.692 352.458 645.85 356.614 645.85 361.741C645.85 366.868 641.692 371.024 636.563 371.024Z" fill="#ED7966"/>
<path d="M625.132 449.572C625.132 449.572 634.419 426.721 606.556 409.584L625.132 449.572Z" fill="#3F3D56"/>
<path d="M636.554 449.157C636.554 449.157 640.781 424.858 673.497 425.066L636.554 449.157Z" fill="#3F3D56"/>
<path d="M479.03 98.6054C479.059 79.0179 472.509 59.9875 460.428 44.5643C473.402 42.6534 486.639 43.6688 499.168 47.5362C511.698 51.4036 523.203 58.0248 532.839 66.9144C542.476 75.804 549.999 86.7365 554.858 98.9104C559.718 111.084 561.789 124.191 560.921 137.269C560.053 150.347 556.267 163.065 549.842 174.491C543.416 185.916 534.513 195.76 523.786 203.299C513.059 210.838 500.78 215.882 487.849 218.061C474.918 220.24 461.663 219.499 449.056 215.892C432.416 223.116 414.215 226.003 396.155 224.282L424.231 204.315C416.558 199.137 409.748 192.785 404.048 185.492C424.892 182.399 443.929 171.923 457.692 155.975C471.455 140.026 479.028 119.667 479.03 98.6054Z" fill="#141850"/>
<path d="M279.702 89.3224C279.702 71.0325 285.415 53.1989 296.043 38.3101C306.672 23.4214 321.685 12.2203 338.989 6.26985C356.293 0.319411 375.023 -0.0834734 392.567 5.1174C410.111 10.3182 425.593 20.8634 436.852 35.2814C421.652 37.533 407.308 43.7293 395.251 53.2521C383.195 62.7748 373.848 75.291 368.143 89.5518C362.438 103.813 360.574 119.319 362.737 134.525C364.901 149.731 371.016 164.104 380.472 176.21C368.054 178.038 355.39 177.203 343.319 173.762C326.68 180.986 308.478 183.873 290.418 182.152L318.494 162.185C306.545 154.152 296.756 143.304 289.991 130.597C283.226 117.891 279.693 103.716 279.702 89.3224Z" fill="#ED7966"/>
<path d="M0 449.572H678V451H0V449.572Z" fill="#3F3D56"/>
<path d="M102.061 114.642L106.3 142.835L154.743 175.584C154.743 175.584 180.213 187.783 178.609 195.362C177.18 202.118 157.526 201.319 151.341 190.871L93.424 164.555L74.054 126.228L102.061 114.642Z" fill="#ED7966"/>
<path d="M101.807 398.873L99.664 428.864L78.945 427.436L82.517 398.873H101.807Z" fill="#ED7966"/>
<path d="M96.092 419.581C96.092 419.581 98.949 408.87 101.807 409.584L106.094 417.439C106.094 417.439 125.384 435.29 131.099 436.004C131.099 436.004 149.674 441.717 131.099 450.286H109.666C109.666 450.286 95.377 449.572 92.519 450.286C89.662 451 73.23 451 72.515 446.716C71.801 442.431 74.659 433.862 74.659 433.862C74.659 433.862 77.293 412.795 80.263 416.902C81.814 419.105 83.523 421.194 85.375 423.151L96.092 419.581Z" fill="#2F2E41"/>
<path d="M48.224 399.23L46.081 429.221L25.362 427.793L28.935 399.23H48.224Z" fill="#ED7966"/>
<path d="M42.509 419.938C42.509 419.938 45.367 409.227 48.224 409.941L52.511 417.796C52.511 417.796 71.801 435.647 77.516 436.361C77.516 436.361 96.092 442.074 77.516 450.643H56.083C56.083 450.643 41.794 449.215 38.937 449.929C36.079 450.643 19.647 450.643 18.933 446.359C18.218 442.074 21.076 434.219 21.076 434.219C21.076 434.219 23.711 413.152 26.68 417.259C28.232 419.462 29.94 421.551 31.792 423.508L42.509 419.938Z" fill="#2F2E41"/>
<path d="M129.67 214.999L133.242 219.998V229.995L110.38 314.969L106.094 333.535C106.094 333.535 106.094 404.942 101.807 404.942C97.521 404.942 78.231 407.085 78.231 402.8C78.231 398.516 79.66 301.402 79.66 301.402L60.37 337.82C60.37 337.82 51.797 402.086 48.939 402.8C46.081 403.514 26.077 402.8 24.648 398.516L28.935 357.814C28.935 357.814 28.22 312.113 40.366 302.116C40.366 302.116 42.509 289.977 44.652 284.978C46.796 279.98 50.368 277.123 48.224 273.553C46.081 269.983 51.082 230.709 51.082 230.709C51.082 230.709 49.653 218.569 52.511 214.999C55.369 211.429 129.67 214.999 129.67 214.999Z" fill="#141850"/>
<path d="M83.946 52.9048C71.714 52.9048 61.799 42.994 61.799 30.7685C61.799 18.543 71.714 8.63228 83.946 8.63228C96.178 8.63228 106.094 18.543 106.094 30.7685C106.094 42.994 96.178 52.9048 83.946 52.9048Z" fill="#ED7966"/>
<path d="M70.015 43.9788L71.444 58.2603L65.728 63.2588L102.164 80.3965C93.189 65.07 90.531 51.1142 95.02 41.1226L70.015 43.9788Z" fill="#ED7966"/>
<path d="M95.02 65.401C95.02 65.401 100.735 76.8262 93.591 73.9699L71.444 58.2603C71.444 58.2603 47.153 67.5432 38.58 78.2543L45.724 153.946L51.439 207.501C51.439 207.501 47.867 213.928 48.582 214.642C49.296 215.356 50.011 213.928 49.296 216.07C48.582 218.212 46.438 216.07 48.582 218.212C50.725 220.355 52.868 218.212 50.725 220.355C48.582 222.497 50.725 223.211 50.725 223.211C50.725 223.211 53.583 206.073 78.588 218.927C103.593 231.78 114.31 235.35 132.885 219.641L111.452 138.236L109.721 107.534C109.143 97.2787 107.317 87.132 104.284 77.3181C102.646 72.0173 99.791 66.8081 95.02 63.9729V65.401Z" fill="#303179"/>
<path d="M56.798 127.882L46.081 154.303L71.086 207.144C71.086 207.144 76.802 213.571 73.23 221.426C71.384 225.623 69.235 229.68 66.8 233.565C66.8 233.565 60.37 230.709 60.37 218.57L23.934 166.442L26.791 123.598L56.798 127.882Z" fill="#ED7966"/>
<path d="M58.227 80.7536C58.227 80.7536 68.229 90.7506 63.942 106.46C59.655 122.17 56.083 134.309 56.083 134.309C56.083 134.309 38.937 121.456 24.648 129.31C24.648 129.31 26.791 82.8958 38.937 78.6114C51.082 74.3269 58.227 80.7536 58.227 80.7536Z" fill="#D0CDE1"/>
<path d="M65.74 11.7788C65.74 11.7788 72.506 -2.87501 85.476 0.506646C98.446 3.8883 105.776 8.96078 106.34 14.0333C106.904 19.1057 106.058 26.7145 106.058 26.7145C106.058 26.7145 104.648 16.2877 95.626 18.5421C86.604 20.7966 72.506 19.1058 72.506 19.1058L70.251 39.3957C70.251 39.3957 66.404 35.2978 63.585 37.5522C60.765 39.8066 56.717 16.2877 65.74 11.7788Z" fill="#303179"/>
<path d="M177.782 171.028L164.595 167.976C163.959 167.828 163.291 167.902 162.702 168.184C162.113 168.466 161.638 168.94 161.354 169.528L147.847 197.524C147.7 197.83 147.621 198.163 147.616 198.502C147.612 198.841 147.681 199.177 147.82 199.486C147.96 199.796 148.165 200.071 148.421 200.292C148.678 200.514 148.98 200.677 149.306 200.77L162.707 204.575C163.425 204.779 164.192 204.715 164.866 204.395C165.539 204.074 166.074 203.52 166.369 202.835L174.987 182.827L175.25 182.972L176.89 179.181L176.618 179.042L179.023 173.456C179.127 173.217 179.175 172.958 179.167 172.698C179.158 172.438 179.092 172.182 178.974 171.951C178.855 171.719 178.687 171.516 178.481 171.356C178.275 171.197 178.036 171.085 177.782 171.028Z" fill="#3F3D56"/>
<path d="M166.184 169.014L164.644 168.658C164.202 168.556 163.739 168.607 163.33 168.805C162.922 169.002 162.593 169.333 162.399 169.743L149.215 197.56C149.139 197.72 149.098 197.895 149.096 198.072C149.094 198.249 149.13 198.425 149.202 198.587C149.274 198.749 149.38 198.893 149.513 199.011C149.646 199.128 149.803 199.215 149.972 199.266L163.279 203.279C163.654 203.392 164.058 203.364 164.414 203.198C164.769 203.033 165.051 202.742 165.206 202.382L177.68 173.364C177.761 173.176 177.799 172.973 177.793 172.768C177.786 172.564 177.735 172.363 177.643 172.181C177.55 171.999 177.419 171.839 177.258 171.713C177.097 171.587 176.911 171.497 176.711 171.451L175.251 171.113C175.11 171.08 174.962 171.095 174.829 171.155C174.697 171.215 174.589 171.317 174.52 171.445C174.46 171.558 174.364 171.648 174.248 171.701C174.131 171.754 174 171.767 173.875 171.738L166.943 170.133C166.699 170.076 166.485 169.93 166.344 169.722C166.203 169.515 166.146 169.262 166.184 169.014Z" fill="white"/>
</svg>
