<svg width="834" height="529" viewBox="0 0 834 529" fill="none" xmlns="http://www.w3.org/2000/svg">
<rect width="834" height="529"/>
<g clip-path="url(#clip0)">
<path d="M799.071 511.492C795.355 516.5 790.748 520.782 785.482 524.122C784.361 524.832 783.212 525.502 782.042 526.122H754.512C754.841 525.462 755.162 524.792 755.472 524.122C764.008 506.109 766.684 485.875 763.126 466.263C759.567 446.65 749.952 428.647 735.631 414.782C752.272 419.922 767.651 429.942 777.712 444.152C782.6 451.072 786.076 458.887 787.942 467.152C789.604 450.623 786.962 433.946 780.272 418.742C793.781 429.732 804.302 444.782 808.312 461.722C812.321 478.672 809.412 497.482 799.071 511.492Z" fill="#ED7966"/>
<path d="M583.569 15.9921H0.248718V292.788H583.569V15.9921Z" fill="#E6E6E6" fill-opacity="0.3"/>
<path d="M566.889 39.7278H16.929V270.667H566.889V39.7278Z" fill="white"/>
<path d="M583.32 0H0V24.7812H583.32V0Z" fill="#303179"/>
<path d="M18.4155 16.0556C20.9522 16.0556 23.0086 13.9992 23.0086 11.4625C23.0086 8.92575 20.9522 6.86935 18.4155 6.86935C15.8788 6.86935 13.8224 8.92575 13.8224 11.4625C13.8224 13.9992 15.8788 16.0556 18.4155 16.0556Z" fill="white"/>
<path d="M35.8494 16.0556C38.3861 16.0556 40.4425 13.9992 40.4425 11.4625C40.4425 8.92575 38.3861 6.86935 35.8494 6.86935C33.3127 6.86935 31.2563 8.92575 31.2563 11.4625C31.2563 13.9992 33.3127 16.0556 35.8494 16.0556Z" fill="white"/>
<path d="M53.2841 16.0556C55.8208 16.0556 57.8772 13.9992 57.8772 11.4625C57.8772 8.92575 55.8208 6.86935 53.2841 6.86935C50.7474 6.86935 48.691 8.92575 48.691 11.4625C48.691 13.9992 50.7474 16.0556 53.2841 16.0556Z" fill="white"/>
<path d="M509.222 88H153.778C151.184 88 148.697 88.7902 146.864 90.1967C145.03 91.6032 144 93.5109 144 95.5C144 97.4891 145.03 99.3968 146.864 100.803C148.697 102.21 151.184 103 153.778 103H509.222C511.816 103 514.303 102.21 516.136 100.803C517.97 99.3968 519 97.4891 519 95.5C519 93.5109 517.97 91.6032 516.136 90.1967C514.303 88.7902 511.816 88 509.222 88Z" fill="#E4E4E4"/>
<path d="M509.233 147H153.778C151.185 147 148.698 147.843 146.864 149.343C145.03 150.843 144 152.878 144 155C144 157.122 145.03 159.157 146.864 160.657C148.698 162.157 151.185 163 153.778 163H509.233C511.825 162.998 514.309 162.154 516.14 160.654C517.971 159.154 519 157.12 519 155C519 152.88 517.971 150.846 516.14 149.346C514.309 147.846 511.825 147.002 509.233 147Z" fill="#E4E4E4"/>
<path d="M509.222 207H153.778C151.184 207 148.697 207.79 146.864 209.197C145.03 210.603 144 212.511 144 214.5C144 216.489 145.03 218.397 146.864 219.803C148.697 221.21 151.184 222 153.778 222H509.222C511.816 222 514.303 221.21 516.136 219.803C517.97 218.397 519 216.489 519 214.5C519 212.511 517.97 210.603 516.136 209.197C514.303 207.79 511.816 207 509.222 207Z" fill="#E4E4E4"/>
<path d="M509 102.999H164.024C159.026 103.029 154.186 102.276 150.48 100.892C146.774 99.5078 144.475 97.5955 144.048 95.5399C143.86 94.4454 144.224 93.3466 145.117 92.3131C146.01 91.2796 147.413 90.3338 149.237 89.5355C151.052 88.737 153.243 88.1002 155.676 87.6641C158.109 87.2281 160.733 87.0021 163.385 87H471.316C481.307 87.0047 490.886 88.645 497.95 91.561C505.015 94.4771 508.989 98.4308 509 102.555V102.999Z" fill="#ED7966"/>
<path d="M41.78 101V86.8H51.1V88.04H43.18V93.26H49.86V94.42H43.18V101H41.78ZM57.6961 91.78C56.7894 91.8067 55.9894 92.06 55.2961 92.54C54.6161 93.02 54.1361 93.68 53.8561 94.52V101H52.4961V90.58H53.7761V93.08C54.1361 92.3467 54.6094 91.7533 55.1961 91.3C55.7961 90.8467 56.4294 90.5933 57.0961 90.54C57.2294 90.5267 57.3428 90.52 57.4361 90.52C57.5428 90.52 57.6294 90.5267 57.6961 90.54V91.78ZM63.4205 101.2C62.6738 101.2 61.9805 101.06 61.3405 100.78C60.7138 100.487 60.1671 100.093 59.7005 99.6C59.2471 99.0933 58.8938 98.52 58.6405 97.88C58.3871 97.2267 58.2605 96.54 58.2605 95.82C58.2605 95.0733 58.3871 94.38 58.6405 93.74C58.8938 93.0867 59.2538 92.5133 59.7205 92.02C60.1871 91.5133 60.7338 91.12 61.3605 90.84C62.0005 90.5467 62.6938 90.4 63.4405 90.4C64.1871 90.4 64.8738 90.5467 65.5005 90.84C66.1271 91.12 66.6738 91.5133 67.1405 92.02C67.6071 92.5133 67.9671 93.0867 68.2205 93.74C68.4738 94.38 68.6005 95.0733 68.6005 95.82C68.6005 96.54 68.4738 97.2267 68.2205 97.88C67.9671 98.52 67.6071 99.0933 67.1405 99.6C66.6871 100.093 66.1405 100.487 65.5005 100.78C64.8738 101.06 64.1805 101.2 63.4205 101.2ZM59.6405 95.84C59.6405 96.6133 59.8071 97.32 60.1405 97.96C60.4871 98.5867 60.9471 99.0867 61.5205 99.46C62.0938 99.82 62.7271 100 63.4205 100C64.1138 100 64.7471 99.8133 65.3205 99.44C65.8938 99.0667 66.3538 98.56 66.7005 97.92C67.0471 97.2667 67.2205 96.56 67.2205 95.8C67.2205 95.0267 67.0471 94.32 66.7005 93.68C66.3538 93.04 65.8938 92.5333 65.3205 92.16C64.7471 91.7867 64.1138 91.6 63.4205 91.6C62.7271 91.6 62.0938 91.7933 61.5205 92.18C60.9605 92.5667 60.5071 93.08 60.1605 93.72C59.8138 94.3467 59.6405 95.0533 59.6405 95.84ZM79.635 101H78.275V95.18C78.275 93.9533 78.095 93.06 77.735 92.5C77.375 91.9267 76.8083 91.64 76.035 91.64C75.5017 91.64 74.975 91.7733 74.455 92.04C73.935 92.2933 73.475 92.6467 73.075 93.1C72.6883 93.54 72.4083 94.0467 72.235 94.62V101H70.875V90.58H72.115V92.94C72.395 92.4333 72.7617 91.9933 73.215 91.62C73.6683 91.2333 74.1817 90.9333 74.755 90.72C75.3283 90.5067 75.9217 90.4 76.535 90.4C77.1083 90.4 77.595 90.5067 77.995 90.72C78.395 90.9333 78.715 91.24 78.955 91.64C79.195 92.0267 79.3683 92.5 79.475 93.06C79.5817 93.6067 79.635 94.22 79.635 94.9V101ZM87.4375 100.5C87.3308 100.54 87.1642 100.613 86.9375 100.72C86.7108 100.827 86.4375 100.92 86.1175 101C85.7975 101.08 85.4508 101.12 85.0775 101.12C84.6908 101.12 84.3242 101.047 83.9775 100.9C83.6442 100.753 83.3775 100.533 83.1775 100.24C82.9775 99.9333 82.8775 99.56 82.8775 99.12V91.66H81.4375V90.58H82.8775V87.06H84.2375V90.58H86.6375V91.66H84.2375V98.74C84.2642 99.1133 84.3975 99.3933 84.6375 99.58C84.8908 99.7667 85.1775 99.86 85.4975 99.86C85.8708 99.86 86.2108 99.8 86.5175 99.68C86.8242 99.5467 87.0108 99.4533 87.0775 99.4L87.4375 100.5ZM88.7609 96.18V94.92H94.6009V96.18H88.7609ZM101.898 101.2C101.152 101.2 100.458 101.06 99.8184 100.78C99.1784 100.487 98.6251 100.093 98.1584 99.6C97.6918 99.0933 97.3251 98.5133 97.0584 97.86C96.8051 97.2067 96.6784 96.5067 96.6784 95.76C96.6784 94.7867 96.8984 93.8933 97.3384 93.08C97.7918 92.2667 98.4118 91.62 99.1984 91.14C99.9851 90.6467 100.878 90.4 101.878 90.4C102.905 90.4 103.798 90.6467 104.558 91.14C105.332 91.6333 105.938 92.2867 106.378 93.1C106.818 93.9 107.038 94.78 107.038 95.74C107.038 95.8467 107.038 95.9533 107.038 96.06C107.038 96.1533 107.032 96.2267 107.018 96.28H98.0984C98.1651 97.0267 98.3718 97.6933 98.7184 98.28C99.0784 98.8533 99.5384 99.3133 100.098 99.66C100.672 99.9933 101.292 100.16 101.958 100.16C102.638 100.16 103.278 99.9867 103.878 99.64C104.492 99.2933 104.918 98.84 105.158 98.28L106.338 98.6C106.125 99.0933 105.798 99.54 105.358 99.94C104.918 100.34 104.398 100.653 103.798 100.88C103.212 101.093 102.578 101.2 101.898 101.2ZM98.0584 95.3H105.758C105.705 94.54 105.498 93.8733 105.138 93.3C104.792 92.7267 104.332 92.28 103.758 91.96C103.198 91.6267 102.578 91.46 101.898 91.46C101.218 91.46 100.598 91.6267 100.038 91.96C99.4784 92.28 99.0184 92.7333 98.6584 93.32C98.3118 93.8933 98.1118 94.5533 98.0584 95.3ZM117.897 101H116.537V95.18C116.537 93.9533 116.357 93.06 115.997 92.5C115.637 91.9267 115.07 91.64 114.297 91.64C113.763 91.64 113.237 91.7733 112.717 92.04C112.197 92.2933 111.737 92.6467 111.337 93.1C110.95 93.54 110.67 94.0467 110.497 94.62V101H109.137V90.58H110.377V92.94C110.657 92.4333 111.023 91.9933 111.477 91.62C111.93 91.2333 112.443 90.9333 113.017 90.72C113.59 90.5067 114.183 90.4 114.797 90.4C115.37 90.4 115.857 90.5067 116.257 90.72C116.657 90.9333 116.977 91.24 117.217 91.64C117.457 92.0267 117.63 92.5 117.737 93.06C117.843 93.6067 117.897 94.22 117.897 94.9V101ZM120.097 95.82C120.097 94.8333 120.297 93.9333 120.697 93.12C121.11 92.2933 121.677 91.6333 122.397 91.14C123.117 90.6467 123.937 90.4 124.857 90.4C125.724 90.4 126.497 90.6333 127.177 91.1C127.87 91.5533 128.41 92.1067 128.797 92.76V86.4H130.157V99.36C130.157 99.5467 130.197 99.6867 130.277 99.78C130.357 99.86 130.477 99.9067 130.637 99.92V101C130.37 101.04 130.164 101.053 130.017 101.04C129.737 101.027 129.49 100.913 129.277 100.7C129.064 100.487 128.957 100.253 128.957 100V98.98C128.544 99.66 127.984 100.2 127.277 100.6C126.57 101 125.837 101.2 125.077 101.2C124.357 101.2 123.69 101.053 123.077 100.76C122.477 100.467 121.95 100.067 121.497 99.56C121.057 99.0533 120.71 98.48 120.457 97.84C120.217 97.1867 120.097 96.5133 120.097 95.82ZM128.797 97.42V94.2C128.624 93.72 128.344 93.2867 127.957 92.9C127.57 92.5 127.13 92.1867 126.637 91.96C126.157 91.72 125.677 91.6 125.197 91.6C124.637 91.6 124.13 91.72 123.677 91.96C123.224 92.1867 122.83 92.5 122.497 92.9C122.177 93.3 121.93 93.7533 121.757 94.26C121.584 94.7667 121.497 95.2867 121.497 95.82C121.497 96.38 121.59 96.9133 121.777 97.42C121.977 97.9267 122.257 98.38 122.617 98.78C122.977 99.1667 123.39 99.4667 123.857 99.68C124.324 99.8933 124.83 100 125.377 100C125.724 100 126.084 99.9333 126.457 99.8C126.83 99.6667 127.184 99.4867 127.517 99.26C127.864 99.02 128.15 98.74 128.377 98.42C128.604 98.1 128.744 97.7667 128.797 97.42Z" fill="black"/>
<path d="M52.46 159.34C52.46 160.047 52.28 160.68 51.92 161.24C51.56 161.787 51.0733 162.22 50.46 162.54C49.86 162.847 49.2 163 48.48 163H41.78V148.8H48.62C49.2867 148.8 49.86 148.98 50.34 149.34C50.8333 149.687 51.2067 150.14 51.46 150.7C51.7267 151.247 51.86 151.82 51.86 152.42C51.86 153.127 51.68 153.78 51.32 154.38C50.96 154.98 50.46 155.427 49.82 155.72C50.6333 155.96 51.2733 156.407 51.74 157.06C52.22 157.713 52.46 158.473 52.46 159.34ZM51.06 159.1C51.06 158.62 50.9533 158.18 50.74 157.78C50.5267 157.367 50.2333 157.033 49.86 156.78C49.5 156.527 49.0867 156.4 48.62 156.4H43.18V161.78H48.48C48.96 161.78 49.3933 161.653 49.78 161.4C50.1667 161.147 50.4733 160.82 50.7 160.42C50.94 160.007 51.06 159.567 51.06 159.1ZM43.18 150.02V155.26H48.06C48.5267 155.26 48.94 155.14 49.3 154.9C49.66 154.647 49.9467 154.32 50.16 153.92C50.3733 153.52 50.48 153.093 50.48 152.64C50.48 152.16 50.38 151.727 50.18 151.34C49.98 150.94 49.7067 150.62 49.36 150.38C49.0133 150.14 48.62 150.02 48.18 150.02H43.18ZM53.9803 160C53.9803 159.347 54.167 158.787 54.5403 158.32C54.9136 157.84 55.427 157.473 56.0803 157.22C56.747 156.953 57.5136 156.82 58.3803 156.82C58.887 156.82 59.4136 156.86 59.9603 156.94C60.507 157.02 60.9936 157.14 61.4203 157.3V156.42C61.4203 155.54 61.1603 154.84 60.6403 154.32C60.1203 153.8 59.4003 153.54 58.4803 153.54C57.9203 153.54 57.367 153.647 56.8203 153.86C56.287 154.06 55.727 154.36 55.1403 154.76L54.6203 153.8C55.3003 153.333 55.967 152.987 56.6203 152.76C57.2736 152.52 57.9403 152.4 58.6203 152.4C59.9003 152.4 60.9136 152.767 61.6603 153.5C62.407 154.233 62.7803 155.247 62.7803 156.54V161.36C62.7803 161.547 62.8203 161.687 62.9003 161.78C62.9803 161.86 63.107 161.907 63.2803 161.92V163C63.1336 163.013 63.007 163.027 62.9003 163.04C62.7936 163.053 62.7136 163.053 62.6603 163.04C62.327 163.027 62.0736 162.92 61.9003 162.72C61.727 162.52 61.6336 162.307 61.6203 162.08L61.6003 161.32C61.1336 161.92 60.527 162.387 59.7803 162.72C59.0336 163.04 58.2736 163.2 57.5003 163.2C56.8336 163.2 56.227 163.06 55.6803 162.78C55.147 162.487 54.727 162.1 54.4203 161.62C54.127 161.127 53.9803 160.587 53.9803 160ZM60.9603 160.8C61.107 160.613 61.2203 160.433 61.3003 160.26C61.3803 160.087 61.4203 159.933 61.4203 159.8V158.28C60.967 158.107 60.4936 157.973 60.0003 157.88C59.5203 157.787 59.0336 157.74 58.5403 157.74C57.567 157.74 56.7803 157.933 56.1803 158.32C55.5803 158.707 55.2803 159.233 55.2803 159.9C55.2803 160.287 55.3803 160.653 55.5803 161C55.7803 161.333 56.0736 161.613 56.4603 161.84C56.847 162.053 57.3003 162.16 57.8203 162.16C58.4736 162.16 59.0803 162.033 59.6403 161.78C60.2136 161.527 60.6536 161.2 60.9603 160.8ZM70.2388 163.2C69.4788 163.2 68.7788 163.06 68.1388 162.78C67.5121 162.487 66.9588 162.087 66.4788 161.58C66.0121 161.073 65.6454 160.493 65.3788 159.84C65.1254 159.187 64.9988 158.493 64.9988 157.76C64.9988 156.773 65.2188 155.873 65.6588 155.06C66.0988 154.247 66.7121 153.6 67.4988 153.12C68.2854 152.64 69.1921 152.4 70.2188 152.4C71.1921 152.4 72.0521 152.627 72.7988 153.08C73.5454 153.52 74.0988 154.12 74.4588 154.88L73.1388 155.3C72.8454 154.767 72.4321 154.353 71.8988 154.06C71.3788 153.753 70.7988 153.6 70.1588 153.6C69.4654 153.6 68.8321 153.78 68.2588 154.14C67.6854 154.5 67.2254 154.993 66.8788 155.62C66.5454 156.247 66.3788 156.96 66.3788 157.76C66.3788 158.547 66.5521 159.26 66.8988 159.9C67.2454 160.54 67.7054 161.053 68.2788 161.44C68.8521 161.813 69.4854 162 70.1788 162C70.6321 162 71.0654 161.92 71.4788 161.76C71.9054 161.6 72.2721 161.387 72.5788 161.12C72.8988 160.84 73.1121 160.54 73.2188 160.22L74.5588 160.62C74.3721 161.113 74.0588 161.56 73.6188 161.96C73.1921 162.347 72.6854 162.653 72.0988 162.88C71.5254 163.093 70.9054 163.2 70.2388 163.2ZM84.1353 163L80.2753 157.66L78.0553 159.74V163H76.6953V148.4H78.0553V158.28L83.9553 152.6H85.4553L81.1953 156.86L85.6153 163H84.1353ZM86.3781 158.18V156.92H92.2181V158.18H86.3781ZM99.5156 163.2C98.769 163.2 98.0756 163.06 97.4356 162.78C96.7956 162.487 96.2423 162.093 95.7756 161.6C95.309 161.093 94.9423 160.513 94.6756 159.86C94.4223 159.207 94.2956 158.507 94.2956 157.76C94.2956 156.787 94.5156 155.893 94.9556 155.08C95.409 154.267 96.029 153.62 96.8156 153.14C97.6023 152.647 98.4956 152.4 99.4956 152.4C100.522 152.4 101.416 152.647 102.176 153.14C102.949 153.633 103.556 154.287 103.996 155.1C104.436 155.9 104.656 156.78 104.656 157.74C104.656 157.847 104.656 157.953 104.656 158.06C104.656 158.153 104.649 158.227 104.636 158.28H95.7156C95.7823 159.027 95.989 159.693 96.3356 160.28C96.6956 160.853 97.1556 161.313 97.7156 161.66C98.289 161.993 98.909 162.16 99.5756 162.16C100.256 162.16 100.896 161.987 101.496 161.64C102.109 161.293 102.536 160.84 102.776 160.28L103.956 160.6C103.742 161.093 103.416 161.54 102.976 161.94C102.536 162.34 102.016 162.653 101.416 162.88C100.829 163.093 100.196 163.2 99.5156 163.2ZM95.6756 157.3H103.376C103.322 156.54 103.116 155.873 102.756 155.3C102.409 154.727 101.949 154.28 101.376 153.96C100.816 153.627 100.196 153.46 99.5156 153.46C98.8356 153.46 98.2156 153.627 97.6556 153.96C97.0956 154.28 96.6356 154.733 96.2756 155.32C95.929 155.893 95.729 156.553 95.6756 157.3ZM115.514 163H114.154V157.18C114.154 155.953 113.974 155.06 113.614 154.5C113.254 153.927 112.687 153.64 111.914 153.64C111.381 153.64 110.854 153.773 110.334 154.04C109.814 154.293 109.354 154.647 108.954 155.1C108.567 155.54 108.287 156.047 108.114 156.62V163H106.754V152.58H107.994V154.94C108.274 154.433 108.641 153.993 109.094 153.62C109.547 153.233 110.061 152.933 110.634 152.72C111.207 152.507 111.801 152.4 112.414 152.4C112.987 152.4 113.474 152.507 113.874 152.72C114.274 152.933 114.594 153.24 114.834 153.64C115.074 154.027 115.247 154.5 115.354 155.06C115.461 155.607 115.514 156.22 115.514 156.9V163ZM117.714 157.82C117.714 156.833 117.914 155.933 118.314 155.12C118.727 154.293 119.294 153.633 120.014 153.14C120.734 152.647 121.554 152.4 122.474 152.4C123.341 152.4 124.114 152.633 124.794 153.1C125.487 153.553 126.027 154.107 126.414 154.76V148.4H127.774V161.36C127.774 161.547 127.814 161.687 127.894 161.78C127.974 161.86 128.094 161.907 128.254 161.92V163C127.987 163.04 127.781 163.053 127.634 163.04C127.354 163.027 127.107 162.913 126.894 162.7C126.681 162.487 126.574 162.253 126.574 162V160.98C126.161 161.66 125.601 162.2 124.894 162.6C124.187 163 123.454 163.2 122.694 163.2C121.974 163.2 121.307 163.053 120.694 162.76C120.094 162.467 119.567 162.067 119.114 161.56C118.674 161.053 118.327 160.48 118.074 159.84C117.834 159.187 117.714 158.513 117.714 157.82ZM126.414 159.42V156.2C126.241 155.72 125.961 155.287 125.574 154.9C125.187 154.5 124.747 154.187 124.254 153.96C123.774 153.72 123.294 153.6 122.814 153.6C122.254 153.6 121.747 153.72 121.294 153.96C120.841 154.187 120.447 154.5 120.114 154.9C119.794 155.3 119.547 155.753 119.374 156.26C119.201 156.767 119.114 157.287 119.114 157.82C119.114 158.38 119.207 158.913 119.394 159.42C119.594 159.927 119.874 160.38 120.234 160.78C120.594 161.167 121.007 161.467 121.474 161.68C121.941 161.893 122.447 162 122.994 162C123.341 162 123.701 161.933 124.074 161.8C124.447 161.667 124.801 161.487 125.134 161.26C125.481 161.02 125.767 160.74 125.994 160.42C126.221 160.1 126.361 159.767 126.414 159.42Z" fill="black"/>
<path d="M41.78 222V207.8H47.78C48.3933 207.8 48.9533 207.927 49.46 208.18C49.9667 208.433 50.4067 208.78 50.78 209.22C51.1667 209.647 51.46 210.127 51.66 210.66C51.8733 211.18 51.98 211.713 51.98 212.26C51.98 212.94 51.8467 213.58 51.58 214.18C51.3267 214.78 50.96 215.287 50.48 215.7C50.0133 216.113 49.46 216.387 48.82 216.52L52.3 222H50.72L47.38 216.76H43.18V222H41.78ZM43.18 215.52H47.82C48.38 215.52 48.8667 215.367 49.28 215.06C49.6933 214.753 50.0133 214.353 50.24 213.86C50.4667 213.353 50.58 212.82 50.58 212.26C50.58 211.687 50.4467 211.16 50.18 210.68C49.9267 210.187 49.58 209.793 49.14 209.5C48.7133 209.193 48.2333 209.04 47.7 209.04H43.18V215.52ZM58.7734 222.2C58.0268 222.2 57.3334 222.06 56.6934 221.78C56.0534 221.487 55.5001 221.093 55.0334 220.6C54.5668 220.093 54.2001 219.513 53.9334 218.86C53.6801 218.207 53.5534 217.507 53.5534 216.76C53.5534 215.787 53.7734 214.893 54.2134 214.08C54.6668 213.267 55.2868 212.62 56.0734 212.14C56.8601 211.647 57.7534 211.4 58.7534 211.4C59.7801 211.4 60.6734 211.647 61.4334 212.14C62.2068 212.633 62.8134 213.287 63.2534 214.1C63.6934 214.9 63.9134 215.78 63.9134 216.74C63.9134 216.847 63.9134 216.953 63.9134 217.06C63.9134 217.153 63.9068 217.227 63.8934 217.28H54.9734C55.0401 218.027 55.2468 218.693 55.5934 219.28C55.9534 219.853 56.4134 220.313 56.9734 220.66C57.5468 220.993 58.1668 221.16 58.8334 221.16C59.5134 221.16 60.1534 220.987 60.7534 220.64C61.3668 220.293 61.7934 219.84 62.0334 219.28L63.2134 219.6C63.0001 220.093 62.6734 220.54 62.2334 220.94C61.7934 221.34 61.2734 221.653 60.6734 221.88C60.0868 222.093 59.4534 222.2 58.7734 222.2ZM54.9334 216.3H62.6334C62.5801 215.54 62.3734 214.873 62.0134 214.3C61.6668 213.727 61.2068 213.28 60.6334 212.96C60.0734 212.627 59.4534 212.46 58.7734 212.46C58.0934 212.46 57.4734 212.627 56.9134 212.96C56.3534 213.28 55.8934 213.733 55.5334 214.32C55.1868 214.893 54.9868 215.553 54.9334 216.3ZM65.1717 219C65.1717 218.347 65.3584 217.787 65.7317 217.32C66.1051 216.84 66.6184 216.473 67.2717 216.22C67.9384 215.953 68.7051 215.82 69.5717 215.82C70.0784 215.82 70.6051 215.86 71.1517 215.94C71.6984 216.02 72.1851 216.14 72.6117 216.3V215.42C72.6117 214.54 72.3517 213.84 71.8317 213.32C71.3117 212.8 70.5917 212.54 69.6717 212.54C69.1117 212.54 68.5584 212.647 68.0117 212.86C67.4784 213.06 66.9184 213.36 66.3317 213.76L65.8117 212.8C66.4917 212.333 67.1584 211.987 67.8117 211.76C68.4651 211.52 69.1317 211.4 69.8117 211.4C71.0917 211.4 72.1051 211.767 72.8517 212.5C73.5984 213.233 73.9717 214.247 73.9717 215.54V220.36C73.9717 220.547 74.0117 220.687 74.0917 220.78C74.1717 220.86 74.2984 220.907 74.4717 220.92V222C74.3251 222.013 74.1984 222.027 74.0917 222.04C73.9851 222.053 73.9051 222.053 73.8517 222.04C73.5184 222.027 73.2651 221.92 73.0917 221.72C72.9184 221.52 72.8251 221.307 72.8117 221.08L72.7917 220.32C72.3251 220.92 71.7184 221.387 70.9717 221.72C70.2251 222.04 69.4651 222.2 68.6917 222.2C68.0251 222.2 67.4184 222.06 66.8717 221.78C66.3384 221.487 65.9184 221.1 65.6117 220.62C65.3184 220.127 65.1717 219.587 65.1717 219ZM72.1517 219.8C72.2984 219.613 72.4117 219.433 72.4917 219.26C72.5717 219.087 72.6117 218.933 72.6117 218.8V217.28C72.1584 217.107 71.6851 216.973 71.1917 216.88C70.7117 216.787 70.2251 216.74 69.7317 216.74C68.7584 216.74 67.9717 216.933 67.3717 217.32C66.7717 217.707 66.4717 218.233 66.4717 218.9C66.4717 219.287 66.5717 219.653 66.7717 220C66.9717 220.333 67.2651 220.613 67.6517 220.84C68.0384 221.053 68.4917 221.16 69.0117 221.16C69.6651 221.16 70.2717 221.033 70.8317 220.78C71.4051 220.527 71.8451 220.2 72.1517 219.8ZM81.4302 222.2C80.6702 222.2 79.9702 222.06 79.3302 221.78C78.7035 221.487 78.1502 221.087 77.6702 220.58C77.2035 220.073 76.8368 219.493 76.5702 218.84C76.3168 218.187 76.1902 217.493 76.1902 216.76C76.1902 215.773 76.4102 214.873 76.8502 214.06C77.2902 213.247 77.9035 212.6 78.6902 212.12C79.4768 211.64 80.3835 211.4 81.4102 211.4C82.3835 211.4 83.2435 211.627 83.9902 212.08C84.7368 212.52 85.2902 213.12 85.6502 213.88L84.3302 214.3C84.0368 213.767 83.6235 213.353 83.0902 213.06C82.5702 212.753 81.9902 212.6 81.3502 212.6C80.6568 212.6 80.0235 212.78 79.4502 213.14C78.8768 213.5 78.4168 213.993 78.0702 214.62C77.7368 215.247 77.5702 215.96 77.5702 216.76C77.5702 217.547 77.7435 218.26 78.0902 218.9C78.4368 219.54 78.8968 220.053 79.4702 220.44C80.0435 220.813 80.6768 221 81.3702 221C81.8235 221 82.2568 220.92 82.6702 220.76C83.0968 220.6 83.4635 220.387 83.7702 220.12C84.0902 219.84 84.3035 219.54 84.4102 219.22L85.7502 219.62C85.5635 220.113 85.2502 220.56 84.8102 220.96C84.3835 221.347 83.8768 221.653 83.2902 221.88C82.7168 222.093 82.0968 222.2 81.4302 222.2ZM92.8867 221.5C92.7801 221.54 92.6134 221.613 92.3867 221.72C92.1601 221.827 91.8867 221.92 91.5667 222C91.2467 222.08 90.9001 222.12 90.5267 222.12C90.1401 222.12 89.7734 222.047 89.4267 221.9C89.0934 221.753 88.8267 221.533 88.6267 221.24C88.4267 220.933 88.3267 220.56 88.3267 220.12V212.66H86.8867V211.58H88.3267V208.06H89.6867V211.58H92.0867V212.66H89.6867V219.74C89.7134 220.113 89.8467 220.393 90.0867 220.58C90.3401 220.767 90.6267 220.86 90.9467 220.86C91.3201 220.86 91.6601 220.8 91.9667 220.68C92.2734 220.547 92.4601 220.453 92.5267 220.4L92.8867 221.5ZM94.3859 222V220.04H95.5659V222H94.3859ZM96.815 225.62C96.375 225.62 95.9617 225.56 95.575 225.44C95.175 225.32 94.8283 225.12 94.535 224.84L95.195 223.92C95.395 224.107 95.6283 224.233 95.895 224.3C96.1483 224.367 96.4017 224.4 96.655 224.4C96.975 224.4 97.275 224.32 97.555 224.16C97.835 224 98.0617 223.773 98.235 223.48C98.4217 223.2 98.515 222.887 98.515 222.54V211.58H99.875V222.46C99.875 223.073 99.7283 223.62 99.435 224.1C99.1417 224.58 98.7617 224.953 98.295 225.22C97.8283 225.487 97.335 225.62 96.815 225.62ZM98.515 209.4V207.4H99.875V209.4H98.515ZM106.287 222.2C105.434 222.2 104.641 222.06 103.907 221.78C103.174 221.5 102.541 221.073 102.007 220.5L102.567 219.54C103.154 220.087 103.741 220.487 104.327 220.74C104.927 220.98 105.561 221.1 106.227 221.1C107.041 221.1 107.701 220.94 108.207 220.62C108.714 220.287 108.967 219.813 108.967 219.2C108.967 218.787 108.841 218.473 108.587 218.26C108.347 218.033 107.994 217.853 107.527 217.72C107.074 217.573 106.527 217.42 105.887 217.26C105.167 217.06 104.561 216.853 104.067 216.64C103.587 216.413 103.221 216.133 102.967 215.8C102.727 215.453 102.607 215.007 102.607 214.46C102.607 213.78 102.774 213.22 103.107 212.78C103.454 212.327 103.921 211.987 104.507 211.76C105.107 211.52 105.774 211.4 106.507 211.4C107.307 211.4 108.014 211.527 108.627 211.78C109.241 212.033 109.741 212.387 110.127 212.84L109.467 213.76C109.094 213.333 108.647 213.02 108.127 212.82C107.621 212.607 107.054 212.5 106.427 212.5C106.001 212.5 105.594 212.56 105.207 212.68C104.821 212.787 104.501 212.973 104.247 213.24C104.007 213.493 103.887 213.847 103.887 214.3C103.887 214.673 103.981 214.967 104.167 215.18C104.354 215.38 104.634 215.553 105.007 215.7C105.381 215.833 105.841 215.98 106.387 216.14C107.174 216.353 107.861 216.573 108.447 216.8C109.034 217.013 109.487 217.293 109.807 217.64C110.127 217.987 110.287 218.473 110.287 219.1C110.287 220.073 109.921 220.833 109.187 221.38C108.454 221.927 107.487 222.2 106.287 222.2Z" fill="black"/>
<path d="M456 161.999H155.49C152.622 162.027 149.845 161.321 147.718 160.024C145.592 158.726 144.273 156.933 144.028 155.006C143.92 153.98 144.129 152.95 144.641 151.981C145.154 151.012 145.959 150.125 147.005 149.377C148.047 148.628 149.304 148.031 150.7 147.623C152.096 147.214 153.602 147.002 155.124 147H434.376C440.109 147.004 445.606 148.542 449.659 151.276C453.713 154.01 455.993 157.716 456 161.583V161.999Z" fill="#ED7966"/>
<path d="M375 222.999H153.831C151.377 223.029 149.001 222.276 147.181 220.892C145.362 219.508 144.233 217.595 144.024 215.54C143.931 214.445 144.11 213.347 144.548 212.313C144.987 211.28 145.676 210.334 146.571 209.535C147.462 208.737 148.538 208.1 149.733 207.664C150.927 207.228 152.215 207.002 153.517 207H356.499C361.404 207.005 366.107 208.645 369.575 211.561C373.043 214.477 374.994 218.431 375 222.555V222.999Z" fill="#ED7966"/>
<path d="M577.852 225.217C578.473 226.404 579.346 227.439 580.411 228.252C581.475 229.064 582.705 229.633 584.013 229.918C585.321 230.204 586.676 230.199 587.982 229.905C589.288 229.61 590.514 229.032 591.573 228.213L618.831 245.997L618.748 229.084L592.876 214.789C591.381 213.102 589.319 212.021 587.081 211.752C584.843 211.483 582.584 212.045 580.732 213.33C578.88 214.616 577.564 216.536 577.033 218.727C576.503 220.917 576.794 223.227 577.852 225.217L577.852 225.217Z" fill="#ED7966"/>
<path d="M714.639 514.364H702.945L697.381 469.257L714.641 469.258L714.639 514.364Z" fill="#ED7966"/>
<path d="M717.621 525.7L679.914 525.699V525.222C679.914 521.329 681.461 517.596 684.213 514.844C686.965 512.092 690.698 510.545 694.591 510.545H694.592L717.622 510.546L717.621 525.7Z" fill="#2F2E41"/>
<path d="M656.783 514.364H645.089L639.526 469.257L656.785 469.258L656.783 514.364Z" fill="#ED7966"/>
<path d="M659.766 525.7L622.058 525.699V525.222C622.059 521.329 623.605 517.596 626.357 514.844C629.11 512.092 632.843 510.545 636.735 510.545H636.736L659.766 510.546L659.766 525.7Z" fill="#2F2E41"/>
<path d="M643.285 284.19L631.632 400.468L637.459 500.836H659.986L664.54 406.425L682.256 354.799L692.568 434.356V499.132L718.197 500.318L726.702 341.718C726.702 341.718 729.591 297.358 723.826 291.922C718.061 286.487 643.285 284.19 643.285 284.19Z" fill="#141850"/>
<path d="M742.641 179.268L719.09 170.402L714.945 161.997L685.336 162.427L678.628 169.167L655.572 176.719L640.913 289.03C640.913 289.03 686.036 321.279 726.09 298.997L742.641 179.268Z" fill="#303179"/>
<path d="M598.495 236.073L637.248 258.856L669.539 215.663V188.571C669.542 186.067 668.801 183.618 667.412 181.535C666.131 179.61 664.348 178.071 662.257 177.085C660.165 176.099 657.844 175.702 655.544 175.939C653.244 176.175 651.052 177.034 649.204 178.425C647.357 179.816 645.924 181.684 645.06 183.829L628.291 225.496L604.505 218.468L598.495 236.073Z" fill="#303179"/>
<path d="M711.108 296.833C711.343 295.515 711.865 294.265 712.637 293.171C713.408 292.076 714.41 291.164 715.572 290.499C716.733 289.833 718.027 289.431 719.361 289.32C720.696 289.208 722.038 289.391 723.294 289.854L743.95 264.703L748.952 280.859L728.57 302.266C727.651 304.325 726.01 305.975 723.956 306.904C721.902 307.833 719.578 307.976 717.426 307.306C715.273 306.637 713.441 305.201 712.277 303.27C711.112 301.34 710.696 299.05 711.108 296.833L711.108 296.833Z" fill="#ED7966"/>
<path d="M741.917 292.873L728.864 279.819L750.421 241.193L719.156 206.15L720.961 192.012C721.376 188.757 722.68 185.68 724.729 183.117C726.511 180.889 728.8 179.119 731.406 177.957C734.011 176.794 736.857 176.273 739.706 176.436C742.554 176.598 745.322 177.441 747.779 178.893C750.235 180.344 752.308 182.363 753.824 184.78L778.269 239.135L778.147 239.316L741.917 292.873Z" fill="#303179"/>
<path d="M721.821 132.819C720.917 139.411 717.433 145.375 712.135 149.401C706.836 153.426 700.156 155.183 693.563 154.285C686.969 153.388 681.002 149.91 676.972 144.615C672.942 139.32 671.179 132.642 672.07 126.047L672.118 125.691C673.159 119.186 676.714 113.35 682.019 109.442C687.323 105.535 693.951 103.869 700.472 104.804C706.993 105.739 712.886 109.201 716.878 114.441C720.871 119.682 722.643 126.282 721.813 132.818L721.821 132.819Z" fill="#ED7966"/>
<path d="M715.431 145.749C716.72 143.13 718.045 140.319 717.682 137.422C717.32 134.526 714.48 131.758 711.691 132.618C710.023 133.133 708.762 134.78 707.019 134.864C704.62 134.98 703.244 132.235 702.498 129.952L699.457 120.656C696.536 122.932 693.15 124.535 689.539 125.351C685.927 126.167 682.181 126.176 678.566 125.377C675.742 124.731 672.89 123.472 671.233 121.096C669.577 118.72 669.587 115.035 671.859 113.238C672.973 112.357 674.455 112.022 675.52 111.082C676.18 110.499 676.635 109.719 676.818 108.857C677 107.995 676.9 107.097 676.533 106.297C676.165 105.496 675.55 104.835 674.777 104.411C674.005 103.987 673.117 103.823 672.244 103.944L679.901 102.987L677.62 98.8605C678.487 99.4507 679.468 99.8533 680.499 100.043C681.531 100.232 682.591 100.204 683.611 99.9597C685.671 99.5888 687.612 98.7406 689.627 98.1749C694.512 96.9275 699.67 97.3087 704.319 99.2607C708.967 101.213 712.851 104.629 715.381 108.99C717.265 108.36 719.296 108.319 721.205 108.87C723.113 109.421 724.809 110.539 726.068 112.075C728.118 114.677 728.675 118.149 728.755 121.46C728.904 127.988 727.48 134.457 724.605 140.32C723.78 142.182 722.595 143.863 721.118 145.266C720.374 145.961 719.488 146.486 718.52 146.802C717.552 147.118 716.527 147.219 715.516 147.098" fill="#303179"/>
<path d="M831.672 528.091H196.224C195.878 528.098 195.54 527.991 195.261 527.786C194.983 527.581 194.78 527.29 194.685 526.957C194.625 526.731 194.618 526.494 194.664 526.265C194.711 526.036 194.809 525.82 194.952 525.635C195.094 525.45 195.278 525.299 195.487 525.196C195.697 525.093 195.928 525.039 196.162 525.039H831.547C831.912 525.026 832.27 525.137 832.563 525.354C832.857 525.57 833.068 525.88 833.163 526.232C833.213 526.455 833.211 526.687 833.159 526.91C833.108 527.132 833.006 527.341 832.863 527.519C832.72 527.698 832.539 527.842 832.333 527.941C832.126 528.039 831.901 528.091 831.672 528.091Z" fill="#303179"/>
</g>
<defs>
<clipPath id="clip0">
<rect width="833.198" height="528.091"/>
</clipPath>
</defs>
</svg>
