<svg width="1074" height="681" viewBox="0 0 1074 681" fill="none" xmlns="http://www.w3.org/2000/svg">
<path d="M1029.02 658.461C1024.23 664.908 1018.3 670.421 1011.52 674.72C1010.08 675.634 1008.6 676.497 1007.09 677.295H971.638C972.061 676.445 972.475 675.583 972.874 674.72C983.866 651.532 987.312 625.484 982.731 600.237C978.147 574.988 965.766 551.812 947.323 533.963C968.753 540.58 988.558 553.479 1001.51 571.772C1007.81 580.681 1012.28 590.741 1014.69 601.381C1016.83 580.103 1013.43 558.634 1004.81 539.061C1022.21 553.209 1035.76 572.583 1040.92 594.391C1046.08 616.211 1042.34 640.426 1029.02 658.461Z" fill="#ED7966"/>
<path d="M751.503 20.5872H0.320312V376.916H751.503V20.5872Z" fill="#E6E6E6" fill-opacity="0.3"/>
<path d="M730.022 51.143H21.8007V348.439H730.022V51.143Z" fill="white"/>
<path d="M751.182 0H0V31.9017H751.182V0Z" fill="#303179"/>
<path d="M23.7149 20.6689C26.9816 20.6689 29.6298 18.0216 29.6298 14.7561C29.6298 11.4904 26.9816 8.84314 23.7149 8.84314C20.4482 8.84314 17.8 11.4904 17.8 14.7561C17.8 18.0216 20.4482 20.6689 23.7149 20.6689Z" fill="white"/>
<path d="M46.1658 20.6689C49.4325 20.6689 52.0806 18.0216 52.0806 14.7561C52.0806 11.4904 49.4325 8.84314 46.1658 8.84314C42.8991 8.84314 40.2509 11.4904 40.2509 14.7561C40.2509 18.0216 42.8991 20.6689 46.1658 20.6689Z" fill="white"/>
<path d="M68.6177 20.6689C71.8844 20.6689 74.5325 18.0216 74.5325 14.7561C74.5325 11.4904 71.8844 8.84314 68.6177 8.84314C65.351 8.84314 62.7028 11.4904 62.7028 14.7561C62.7028 18.0216 65.351 20.6689 68.6177 20.6689Z" fill="white"/>
<path d="M655.761 113.285H198.031C194.69 113.285 191.487 114.303 189.127 116.113C186.765 117.924 185.439 120.38 185.439 122.94C185.439 125.501 186.765 127.957 189.127 129.767C191.487 131.578 194.69 132.595 198.031 132.595H655.761C659.101 132.595 662.304 131.578 664.664 129.767C667.026 127.957 668.353 125.501 668.353 122.94C668.353 120.38 667.026 117.924 664.664 116.113C662.304 114.303 659.101 113.285 655.761 113.285Z" fill="#E4E4E4"/>
<path d="M655.775 189.238H198.031C194.691 189.238 191.489 190.323 189.127 192.254C186.765 194.185 185.439 196.805 185.439 199.537C185.439 202.269 186.765 204.888 189.127 206.819C191.489 208.75 194.691 209.836 198.031 209.836H655.775C659.113 209.833 662.312 208.746 664.67 206.815C667.027 204.884 668.353 202.266 668.353 199.537C668.353 196.808 667.027 194.189 664.67 192.258C662.312 190.327 659.113 189.241 655.775 189.238Z" fill="#E4E4E4"/>
<path d="M655.761 266.478H198.031C194.69 266.478 191.487 267.495 189.127 269.307C186.765 271.117 185.439 273.573 185.439 276.133C185.439 278.694 186.765 281.15 189.127 282.96C191.487 284.771 194.69 285.788 198.031 285.788H655.761C659.101 285.788 662.304 284.771 664.664 282.96C667.026 281.15 668.353 278.694 668.353 276.133C668.353 273.573 667.026 271.117 664.664 269.307C662.304 267.495 659.101 266.478 655.761 266.478Z" fill="#E4E4E4"/>
<path d="M655.475 132.594H211.225C204.789 132.633 198.556 131.663 193.784 129.882C189.011 128.1 186.051 125.638 185.501 122.992C185.259 121.583 185.727 120.168 186.877 118.838C188.027 117.507 189.834 116.29 192.183 115.262C194.52 114.234 197.342 113.414 200.475 112.853C203.608 112.292 206.987 112.001 210.402 111.998H606.946C619.813 112.004 632.148 114.116 641.245 117.87C650.343 121.624 655.461 126.713 655.475 132.023V132.594Z" fill="#ED7966"/>
<path d="M53.803 130.021V111.741H65.8051V113.337H55.6059V120.057H64.2082V121.55H55.6059V130.021H53.803ZM74.2993 118.152C73.1317 118.186 72.1015 118.512 71.2087 119.13C70.333 119.748 69.7149 120.597 69.3543 121.679V130.021H67.6029V116.607H69.2513V119.825C69.7149 118.881 70.3244 118.117 71.0799 117.534C71.8525 116.95 72.6681 116.624 73.5267 116.555C73.6983 116.538 73.8443 116.53 73.9645 116.53C74.1019 116.53 74.2134 116.538 74.2993 116.555V118.152ZM81.671 130.278C80.7094 130.278 79.8166 130.098 78.9925 129.738C78.1854 129.36 77.4814 128.853 76.8805 128.219C76.2966 127.566 75.8417 126.828 75.5155 126.004C75.1892 125.163 75.0261 124.279 75.0261 123.352C75.0261 122.391 75.1892 121.499 75.5155 120.675C75.8417 119.834 76.3053 119.096 76.9063 118.461C77.5071 117.808 78.2112 117.302 79.0182 116.941C79.8424 116.564 80.7352 116.375 81.6968 116.375C82.6582 116.375 83.5425 116.564 84.3496 116.941C85.1565 117.302 85.8605 117.808 86.4615 118.461C87.0624 119.096 87.526 119.834 87.8523 120.675C88.1785 121.499 88.3417 122.391 88.3417 123.352C88.3417 124.279 88.1785 125.163 87.8523 126.004C87.526 126.828 87.0624 127.566 86.4615 128.219C85.8777 128.853 85.1738 129.36 84.3496 129.738C83.5425 130.098 82.6497 130.278 81.671 130.278ZM76.8033 123.378C76.8033 124.374 77.0178 125.283 77.4471 126.107C77.8935 126.914 78.4859 127.558 79.2243 128.038C79.9625 128.502 80.7781 128.733 81.671 128.733C82.5638 128.733 83.3794 128.493 84.1178 128.013C84.8561 127.532 85.4484 126.88 85.8949 126.056C86.3412 125.215 86.5645 124.305 86.5645 123.327C86.5645 122.331 86.3412 121.421 85.8949 120.597C85.4484 119.774 84.8561 119.121 84.1178 118.641C83.3794 118.16 82.5638 117.92 81.671 117.92C80.7781 117.92 79.9625 118.169 79.2243 118.666C78.5031 119.164 77.9192 119.825 77.4729 120.649C77.0264 121.456 76.8033 122.365 76.8033 123.378ZM102.552 130.021H100.8V122.528C100.8 120.949 100.568 119.799 100.105 119.078C99.6412 118.34 98.9114 117.971 97.9156 117.971C97.2288 117.971 96.5506 118.143 95.8809 118.486C95.2113 118.812 94.6189 119.267 94.1038 119.851C93.6058 120.417 93.2452 121.07 93.0221 121.808V130.021H91.2707V116.607H92.8675V119.645C93.2281 118.993 93.7003 118.426 94.2841 117.946C94.8678 117.448 95.529 117.062 96.2672 116.787C97.0055 116.512 97.7697 116.375 98.5595 116.375C99.2978 116.375 99.9245 116.512 100.44 116.787C100.955 117.062 101.367 117.456 101.676 117.971C101.985 118.469 102.208 119.078 102.346 119.799C102.483 120.503 102.552 121.293 102.552 122.168V130.021ZM112.599 129.377C112.462 129.429 112.247 129.523 111.956 129.66C111.664 129.798 111.312 129.918 110.9 130.021C110.487 130.124 110.041 130.175 109.56 130.175C109.062 130.175 108.59 130.081 108.144 129.892C107.714 129.703 107.371 129.42 107.113 129.042C106.856 128.648 106.727 128.167 106.727 127.601V117.997H104.873V116.607H106.727V112.075H108.479V116.607H111.569V117.997H108.479V127.111C108.513 127.592 108.685 127.952 108.994 128.193C109.32 128.433 109.689 128.553 110.101 128.553C110.582 128.553 111.02 128.476 111.415 128.321C111.81 128.15 112.05 128.03 112.136 127.961L112.599 129.377ZM114.304 123.816V122.194H121.824V123.816H114.304ZM131.221 130.278C130.261 130.278 129.367 130.098 128.543 129.738C127.719 129.36 127.006 128.853 126.405 128.219C125.805 127.566 125.332 126.82 124.989 125.979C124.663 125.138 124.5 124.236 124.5 123.275C124.5 122.022 124.783 120.872 125.349 119.825C125.933 118.778 126.732 117.946 127.745 117.328C128.758 116.693 129.908 116.375 131.195 116.375C132.518 116.375 133.668 116.693 134.647 117.328C135.643 117.963 136.424 118.804 136.99 119.851C137.557 120.881 137.84 122.014 137.84 123.249C137.84 123.387 137.84 123.524 137.84 123.661C137.84 123.781 137.833 123.876 137.815 123.945H126.328C126.414 124.906 126.68 125.764 127.127 126.519C127.59 127.257 128.183 127.849 128.903 128.296C129.642 128.725 130.441 128.939 131.298 128.939C132.174 128.939 132.998 128.716 133.771 128.27C134.562 127.824 135.11 127.24 135.419 126.519L136.939 126.931C136.665 127.566 136.243 128.141 135.677 128.656C135.11 129.171 134.441 129.574 133.668 129.866C132.913 130.14 132.097 130.278 131.221 130.278ZM126.277 122.683H136.192C136.124 121.705 135.857 120.846 135.394 120.108C134.948 119.37 134.356 118.795 133.616 118.383C132.895 117.954 132.097 117.74 131.221 117.74C130.346 117.74 129.547 117.954 128.826 118.383C128.105 118.795 127.513 119.379 127.049 120.134C126.603 120.872 126.345 121.722 126.277 122.683ZM151.824 130.021H150.073V122.528C150.073 120.949 149.841 119.799 149.377 119.078C148.914 118.34 148.184 117.971 147.188 117.971C146.501 117.971 145.823 118.143 145.154 118.486C144.484 118.812 143.892 119.267 143.376 119.851C142.878 120.417 142.518 121.07 142.295 121.808V130.021H140.543V116.607H142.14V119.645C142.501 118.993 142.972 118.426 143.557 117.946C144.14 117.448 144.801 117.062 145.54 116.787C146.278 116.512 147.041 116.375 147.832 116.375C148.57 116.375 149.197 116.512 149.712 116.787C150.227 117.062 150.639 117.456 150.949 117.971C151.258 118.469 151.48 119.078 151.618 119.799C151.755 120.503 151.824 121.293 151.824 122.168V130.021ZM154.657 123.352C154.657 122.082 154.915 120.924 155.43 119.877C155.962 118.812 156.692 117.963 157.619 117.328C158.546 116.693 159.602 116.375 160.787 116.375C161.904 116.375 162.899 116.675 163.775 117.276C164.667 117.86 165.363 118.572 165.861 119.413V111.226H167.612V127.91C167.612 128.15 167.664 128.33 167.767 128.45C167.87 128.553 168.024 128.613 168.23 128.63V130.021C167.887 130.072 167.621 130.089 167.432 130.072C167.071 130.056 166.753 129.909 166.479 129.635C166.205 129.36 166.067 129.059 166.067 128.733V127.42C165.535 128.296 164.814 128.991 163.903 129.506C162.993 130.021 162.049 130.278 161.07 130.278C160.143 130.278 159.284 130.089 158.495 129.712C157.722 129.335 157.044 128.82 156.46 128.167C155.894 127.515 155.447 126.777 155.121 125.953C154.812 125.112 154.657 124.245 154.657 123.352ZM165.861 125.412V121.267C165.638 120.649 165.278 120.091 164.779 119.593C164.281 119.078 163.714 118.675 163.079 118.383C162.461 118.074 161.843 117.92 161.225 117.92C160.504 117.92 159.851 118.074 159.268 118.383C158.684 118.675 158.177 119.078 157.748 119.593C157.336 120.108 157.018 120.692 156.795 121.344C156.572 121.996 156.46 122.666 156.46 123.352C156.46 124.073 156.58 124.76 156.821 125.412C157.078 126.064 157.439 126.648 157.902 127.163C158.366 127.661 158.898 128.047 159.499 128.321C160.101 128.596 160.752 128.733 161.457 128.733C161.904 128.733 162.367 128.648 162.848 128.476C163.328 128.304 163.784 128.073 164.213 127.781C164.659 127.472 165.028 127.111 165.32 126.699C165.612 126.288 165.793 125.858 165.861 125.412Z" fill="black"/>
<path d="M67.5564 205.124C67.5564 206.034 67.3246 206.849 66.861 207.57C66.3974 208.274 65.7707 208.831 64.9809 209.243C64.2082 209.639 63.3583 209.836 62.4311 209.836H53.803V191.555H62.6114C63.4699 191.555 64.2082 191.787 64.8263 192.251C65.4616 192.697 65.9425 193.28 66.2687 194.001C66.6121 194.705 66.7838 195.443 66.7838 196.216C66.7838 197.126 66.552 197.966 66.0884 198.739C65.6248 199.511 64.9809 200.087 64.1567 200.464C65.2041 200.773 66.0282 201.348 66.6292 202.189C67.2474 203.029 67.5564 204.008 67.5564 205.124ZM65.7535 204.815C65.7535 204.197 65.6161 203.631 65.3415 203.116C65.0668 202.584 64.6889 202.154 64.2082 201.828C63.7446 201.503 63.2124 201.339 62.6114 201.339H55.6059V208.265H62.4311C63.0492 208.265 63.6072 208.101 64.1052 207.776C64.6032 207.45 64.998 207.029 65.2899 206.514C65.599 205.983 65.7535 205.416 65.7535 204.815ZM55.6059 193.126V199.872H61.8902C62.4912 199.872 63.0235 199.717 63.4871 199.408C63.9507 199.082 64.3199 198.661 64.5946 198.147C64.8692 197.632 65.0066 197.082 65.0066 196.499C65.0066 195.881 64.8779 195.323 64.6203 194.825C64.3628 194.31 64.0108 193.898 63.5643 193.589C63.1179 193.28 62.6114 193.126 62.0448 193.126H55.6059ZM69.5142 205.974C69.5142 205.133 69.7546 204.412 70.2354 203.811C70.7161 203.193 71.3772 202.72 72.2185 202.395C73.0771 202.051 74.0643 201.88 75.1804 201.88C75.8329 201.88 76.5111 201.931 77.2151 202.034C77.9191 202.137 78.5457 202.292 79.0952 202.498V201.365C79.0952 200.232 78.7604 199.331 78.0908 198.661C77.4211 197.992 76.4939 197.657 75.3092 197.657C74.588 197.657 73.8755 197.795 73.1715 198.069C72.4847 198.327 71.7636 198.713 71.008 199.228L70.3384 197.992C71.2141 197.391 72.0726 196.945 72.9139 196.653C73.7552 196.344 74.6138 196.19 75.4895 196.19C77.1378 196.19 78.4427 196.662 79.4043 197.606C80.3659 198.549 80.8466 199.855 80.8466 201.519V207.724C80.8466 207.965 80.8981 208.145 81.0011 208.265C81.1041 208.368 81.2673 208.428 81.4905 208.445V209.836C81.3016 209.852 81.1385 209.87 81.0011 209.887C80.8637 209.904 80.7607 209.904 80.6921 209.887C80.2628 209.87 79.9365 209.733 79.7134 209.475C79.4902 209.218 79.3699 208.943 79.3528 208.651L79.327 207.673C78.726 208.445 77.9449 209.046 76.9833 209.475C76.0217 209.887 75.043 210.093 74.0472 210.093C73.1886 210.093 72.4075 209.913 71.7034 209.552C71.0167 209.175 70.4758 208.677 70.0808 208.059C69.7031 207.424 69.5142 206.729 69.5142 205.974ZM78.5029 207.003C78.6918 206.763 78.8377 206.531 78.9407 206.308C79.0437 206.086 79.0952 205.887 79.0952 205.716V203.759C78.5115 203.537 77.9018 203.364 77.2666 203.244C76.6485 203.125 76.0217 203.064 75.3864 203.064C74.1331 203.064 73.12 203.313 72.3473 203.811C71.5747 204.309 71.1883 204.986 71.1883 205.845C71.1883 206.343 71.3171 206.814 71.5746 207.261C71.8322 207.69 72.2099 208.05 72.7079 208.342C73.2059 208.616 73.7896 208.754 74.4593 208.754C75.3006 208.754 76.0818 208.591 76.803 208.265C77.5413 207.939 78.1079 207.518 78.5029 207.003ZM90.4514 210.093C89.4727 210.093 88.5713 209.913 87.7471 209.552C86.9401 209.175 86.2275 208.66 85.6094 208.008C85.0084 207.355 84.5362 206.608 84.1929 205.768C83.8665 204.927 83.7035 204.034 83.7035 203.09C83.7035 201.819 83.9868 200.661 84.5534 199.614C85.1201 198.567 85.9098 197.735 86.9229 197.117C87.9359 196.499 89.1035 196.19 90.4257 196.19C91.6791 196.19 92.7865 196.482 93.7481 197.065C94.7096 197.632 95.4222 198.404 95.8858 199.382L94.186 199.923C93.8081 199.237 93.2759 198.704 92.5891 198.327C91.9195 197.932 91.1726 197.735 90.3484 197.735C89.4555 197.735 88.6399 197.966 87.9016 198.43C87.1632 198.893 86.5709 199.528 86.1245 200.335C85.6952 201.142 85.4806 202.06 85.4806 203.09C85.4806 204.103 85.7038 205.021 86.1503 205.845C86.5966 206.669 87.189 207.329 87.9274 207.827C88.6657 208.307 89.4812 208.548 90.3742 208.548C90.9579 208.548 91.5159 208.445 92.0483 208.239C92.5976 208.033 93.0698 207.759 93.4648 207.415C93.8769 207.055 94.1516 206.669 94.289 206.257L96.0146 206.772C95.7742 207.406 95.3707 207.982 94.8041 208.497C94.2546 208.995 93.6021 209.389 92.8467 209.681C92.1083 209.955 91.3098 210.093 90.4514 210.093ZM108.347 209.836L103.376 202.961L100.517 205.639V209.836H98.7659V191.04H100.517V203.759L108.115 196.447H110.047L104.561 201.931L110.253 209.836H108.347ZM111.235 203.631V202.009H118.756V203.631H111.235ZM128.153 210.093C127.192 210.093 126.299 209.913 125.475 209.552C124.65 209.175 123.938 208.668 123.337 208.033C122.736 207.381 122.264 206.634 121.92 205.793C121.594 204.953 121.431 204.052 121.431 203.09C121.431 201.837 121.714 200.686 122.281 199.64C122.865 198.593 123.663 197.76 124.676 197.142C125.689 196.508 126.84 196.19 128.127 196.19C129.449 196.19 130.6 196.508 131.579 197.142C132.575 197.777 133.356 198.619 133.923 199.666C134.49 200.695 134.773 201.828 134.773 203.064C134.773 203.202 134.773 203.338 134.773 203.476C134.773 203.596 134.764 203.691 134.747 203.759H123.26C123.346 204.721 123.612 205.578 124.058 206.334C124.522 207.072 125.114 207.664 125.835 208.111C126.574 208.539 127.372 208.754 128.23 208.754C129.107 208.754 129.931 208.531 130.703 208.085C131.493 207.638 132.043 207.055 132.352 206.334L133.871 206.746C133.596 207.381 133.176 207.956 132.609 208.471C132.043 208.986 131.373 209.389 130.6 209.681C129.845 209.955 129.029 210.093 128.153 210.093ZM123.208 202.498H133.125C133.055 201.519 132.79 200.661 132.326 199.923C131.879 199.185 131.287 198.61 130.549 198.198C129.828 197.769 129.029 197.554 128.153 197.554C127.278 197.554 126.479 197.769 125.758 198.198C125.037 198.61 124.444 199.193 123.981 199.949C123.534 200.686 123.277 201.536 123.208 202.498ZM148.755 209.836H147.004V202.343C147.004 200.764 146.772 199.614 146.309 198.893C145.845 198.156 145.115 197.786 144.119 197.786C143.433 197.786 142.754 197.957 142.085 198.301C141.415 198.627 140.823 199.082 140.308 199.666C139.809 200.232 139.449 200.885 139.226 201.622V209.836H137.475V196.422H139.071V199.46C139.432 198.807 139.905 198.241 140.488 197.76C141.071 197.262 141.733 196.876 142.471 196.602C143.209 196.328 143.974 196.19 144.763 196.19C145.501 196.19 146.128 196.328 146.644 196.602C147.159 196.876 147.571 197.271 147.88 197.786C148.189 198.284 148.412 198.893 148.549 199.614C148.687 200.318 148.755 201.107 148.755 201.983V209.836ZM151.589 203.167C151.589 201.897 151.846 200.738 152.361 199.691C152.893 198.627 153.623 197.777 154.55 197.142C155.478 196.508 156.534 196.19 157.718 196.19C158.835 196.19 159.83 196.49 160.706 197.091C161.598 197.674 162.294 198.387 162.792 199.228V191.04H164.544V207.724C164.544 207.965 164.595 208.145 164.698 208.265C164.801 208.368 164.956 208.428 165.162 208.445V209.836C164.818 209.887 164.553 209.904 164.363 209.887C164.003 209.87 163.685 209.724 163.41 209.449C163.136 209.175 162.998 208.874 162.998 208.548V207.235C162.466 208.111 161.745 208.806 160.835 209.321C159.924 209.836 158.98 210.093 158.002 210.093C157.074 210.093 156.216 209.904 155.426 209.527C154.653 209.149 153.975 208.634 153.391 207.982C152.825 207.329 152.378 206.591 152.052 205.768C151.743 204.927 151.589 204.059 151.589 203.167ZM162.792 205.227V201.082C162.569 200.464 162.209 199.906 161.71 199.408C161.212 198.893 160.645 198.49 160.011 198.198C159.392 197.889 158.774 197.735 158.156 197.735C157.435 197.735 156.782 197.889 156.199 198.198C155.615 198.49 155.108 198.893 154.679 199.408C154.267 199.923 153.949 200.506 153.726 201.159C153.503 201.812 153.391 202.481 153.391 203.167C153.391 203.888 153.511 204.574 153.752 205.227C154.01 205.88 154.37 206.463 154.834 206.978C155.297 207.476 155.829 207.862 156.431 208.136C157.032 208.41 157.684 208.548 158.388 208.548C158.835 208.548 159.298 208.462 159.779 208.291C160.259 208.12 160.715 207.888 161.144 207.596C161.591 207.287 161.959 206.926 162.251 206.514C162.544 206.102 162.724 205.674 162.792 205.227Z" fill="black"/>
<path d="M53.803 285.788V267.508H61.5297C62.3194 267.508 63.0406 267.672 63.6931 267.997C64.3456 268.323 64.9122 268.77 65.393 269.336C65.8909 269.886 66.2687 270.504 66.5262 271.19C66.8009 271.859 66.9383 272.545 66.9383 273.25C66.9383 274.125 66.7666 274.949 66.4232 275.721C66.097 276.494 65.6248 277.146 65.0066 277.678C64.4056 278.21 63.6931 278.562 62.8689 278.734L67.3504 285.788H65.3157L61.0146 279.043H55.6059V285.788H53.803ZM55.6059 277.446H61.5812C62.3023 277.446 62.9291 277.249 63.4613 276.854C63.9935 276.459 64.4056 275.944 64.6976 275.309C64.9895 274.657 65.1354 273.971 65.1354 273.25C65.1354 272.512 64.9638 271.834 64.6203 271.216C64.2941 270.581 63.8476 270.074 63.281 269.697C62.7315 269.301 62.1134 269.104 61.4266 269.104H55.6059V277.446ZM75.6866 286.046C74.7252 286.046 73.8322 285.865 73.0081 285.505C72.1839 285.128 71.4714 284.621 70.8704 283.986C70.2695 283.333 69.7973 282.587 69.4538 281.746C69.1276 280.905 68.9645 280.004 68.9645 279.043C68.9645 277.79 69.2478 276.639 69.8144 275.593C70.3983 274.546 71.1967 273.713 72.2096 273.095C73.2227 272.461 74.3731 272.143 75.6609 272.143C76.983 272.143 78.1334 272.461 79.1121 273.095C80.1081 273.73 80.8892 274.572 81.4558 275.618C82.0224 276.648 82.3058 277.781 82.3058 279.017C82.3058 279.155 82.3058 279.291 82.3058 279.429C82.3058 279.549 82.2973 279.644 82.28 279.712H70.7931C70.879 280.674 71.1452 281.531 71.5915 282.287C72.0551 283.024 72.6475 283.617 73.3686 284.063C74.107 284.492 74.9055 284.707 75.7639 284.707C76.6396 284.707 77.4637 284.484 78.2364 284.037C79.0263 283.591 79.5757 283.008 79.8848 282.287L81.4043 282.699C81.1296 283.333 80.7089 283.909 80.1423 284.424C79.5757 284.939 78.906 285.342 78.1334 285.634C77.378 285.908 76.5623 286.046 75.6866 286.046ZM70.7416 278.45H80.6574C80.5888 277.472 80.3226 276.613 79.859 275.876C79.4127 275.138 78.8203 274.563 78.0819 274.151C77.3607 273.722 76.5623 273.507 75.6866 273.507C74.8109 273.507 74.0125 273.722 73.2914 274.151C72.5702 274.563 71.9778 275.146 71.5143 275.902C71.0679 276.639 70.8104 277.489 70.7416 278.45ZM83.9262 281.926C83.9262 281.086 84.1666 280.365 84.6473 279.764C85.1282 279.146 85.7892 278.673 86.6305 278.347C87.489 278.004 88.4764 277.833 89.5923 277.833C90.2449 277.833 90.9231 277.884 91.627 277.987C92.331 278.09 92.9578 278.244 93.5072 278.45V277.318C93.5072 276.185 93.1723 275.284 92.5027 274.614C91.8331 273.945 90.9059 273.61 89.7211 273.61C89 273.61 88.2875 273.748 87.5834 274.022C86.8967 274.28 86.1755 274.666 85.42 275.181L84.7503 273.945C85.626 273.344 86.4846 272.898 87.3259 272.606C88.1673 272.297 89.0257 272.143 89.9014 272.143C91.5498 272.143 92.8548 272.615 93.8162 273.559C94.7778 274.502 95.2585 275.808 95.2585 277.472V283.677C95.2585 283.918 95.31 284.098 95.4131 284.218C95.5161 284.321 95.6792 284.381 95.9024 284.398V285.788C95.7136 285.805 95.5505 285.823 95.4131 285.84C95.2758 285.856 95.1728 285.856 95.104 285.84C94.6748 285.823 94.3486 285.685 94.1253 285.428C93.9021 285.17 93.782 284.896 93.7647 284.604L93.739 283.626C93.1381 284.398 92.3568 284.999 91.3952 285.428C90.4338 285.84 89.4551 286.046 88.4591 286.046C87.6007 286.046 86.8194 285.865 86.1154 285.505C85.4286 285.128 84.8877 284.63 84.4928 284.012C84.1151 283.377 83.9262 282.682 83.9262 281.926ZM92.9148 282.956C93.1037 282.715 93.2496 282.484 93.3526 282.261C93.4557 282.038 93.5072 281.84 93.5072 281.669V279.712C92.9234 279.489 92.3139 279.317 91.6785 279.197C91.0604 279.077 90.4338 279.017 89.7984 279.017C88.545 279.017 87.5319 279.265 86.7592 279.764C85.9866 280.262 85.6003 280.939 85.6003 281.798C85.6003 282.296 85.729 282.767 85.9866 283.214C86.2441 283.642 86.622 284.003 87.1198 284.295C87.6178 284.569 88.2016 284.707 88.8712 284.707C89.7126 284.707 90.4938 284.543 91.2149 284.218C91.9533 283.892 92.52 283.471 92.9148 282.956ZM104.863 286.046C103.885 286.046 102.983 285.865 102.159 285.505C101.352 285.128 100.639 284.613 100.021 283.96C99.4203 283.308 98.9481 282.561 98.6048 281.72C98.2785 280.88 98.1155 279.986 98.1155 279.043C98.1155 277.772 98.3988 276.613 98.9654 275.567C99.532 274.52 100.322 273.687 101.335 273.069C102.348 272.451 103.515 272.143 104.838 272.143C106.091 272.143 107.198 272.435 108.16 273.018C109.121 273.584 109.834 274.357 110.298 275.335L108.598 275.876C108.22 275.19 107.688 274.657 107.001 274.28C106.331 273.884 105.585 273.687 104.76 273.687C103.867 273.687 103.052 273.919 102.314 274.382C101.575 274.846 100.983 275.481 100.536 276.288C100.107 277.095 99.8926 278.013 99.8926 279.043C99.8926 280.056 100.116 280.974 100.562 281.798C101.009 282.621 101.601 283.282 102.339 283.78C103.078 284.26 103.893 284.501 104.786 284.501C105.37 284.501 105.928 284.398 106.46 284.192C107.01 283.986 107.482 283.712 107.877 283.368C108.289 283.008 108.564 282.621 108.701 282.209L110.427 282.724C110.186 283.359 109.783 283.935 109.216 284.449C108.667 284.948 108.014 285.342 107.259 285.634C106.52 285.908 105.722 286.046 104.863 286.046ZM119.617 285.145C119.479 285.196 119.265 285.29 118.973 285.428C118.681 285.566 118.329 285.685 117.917 285.788C117.505 285.891 117.058 285.943 116.578 285.943C116.08 285.943 115.607 285.849 115.161 285.66C114.732 285.47 114.388 285.187 114.131 284.81C113.873 284.415 113.744 283.934 113.744 283.368V273.765H111.89V272.374H113.744V267.843H115.496V272.374H118.586V273.765H115.496V282.879C115.53 283.359 115.702 283.72 116.011 283.96C116.337 284.201 116.706 284.321 117.118 284.321C117.599 284.321 118.037 284.243 118.432 284.089C118.827 283.918 119.067 283.797 119.153 283.729L119.617 285.145ZM121.547 285.788V283.265H123.067V285.788H121.547ZM124.675 290.448C124.109 290.448 123.577 290.371 123.079 290.217C122.563 290.062 122.117 289.805 121.739 289.444L122.589 288.26C122.847 288.501 123.147 288.663 123.491 288.749C123.817 288.835 124.143 288.878 124.469 288.878C124.881 288.878 125.268 288.775 125.628 288.569C125.989 288.363 126.281 288.071 126.504 287.694C126.744 287.333 126.865 286.93 126.865 286.483V272.374H128.616V286.38C128.616 287.17 128.427 287.874 128.049 288.492C127.672 289.11 127.182 289.59 126.581 289.933C125.98 290.277 125.345 290.448 124.675 290.448ZM126.865 269.568V266.993H128.616V269.568H126.865ZM136.873 286.046C135.775 286.046 134.754 285.865 133.808 285.505C132.864 285.145 132.049 284.595 131.362 283.857L132.083 282.621C132.839 283.326 133.595 283.841 134.349 284.166C135.122 284.475 135.938 284.63 136.796 284.63C137.844 284.63 138.694 284.424 139.346 284.012C139.999 283.583 140.324 282.973 140.324 282.184C140.324 281.652 140.162 281.248 139.835 280.974C139.526 280.681 139.071 280.45 138.47 280.278C137.887 280.089 137.182 279.892 136.358 279.686C135.431 279.429 134.651 279.162 134.014 278.888C133.396 278.596 132.925 278.235 132.598 277.807C132.289 277.36 132.134 276.786 132.134 276.082C132.134 275.206 132.349 274.485 132.778 273.919C133.225 273.336 133.826 272.898 134.581 272.606C135.354 272.297 136.213 272.143 137.157 272.143C138.187 272.143 139.097 272.306 139.887 272.632C140.677 272.957 141.321 273.413 141.818 273.996L140.968 275.181C140.488 274.631 139.912 274.228 139.243 273.971C138.591 273.696 137.861 273.559 137.053 273.559C136.505 273.559 135.981 273.636 135.482 273.79C134.985 273.928 134.573 274.168 134.246 274.511C133.937 274.837 133.783 275.293 133.783 275.876C133.783 276.356 133.904 276.734 134.143 277.009C134.384 277.266 134.745 277.489 135.225 277.678C135.706 277.849 136.299 278.039 137.002 278.244C138.015 278.519 138.9 278.802 139.655 279.094C140.411 279.368 140.994 279.729 141.406 280.175C141.818 280.622 142.024 281.248 142.024 282.055C142.024 283.308 141.553 284.286 140.608 284.99C139.664 285.694 138.419 286.046 136.873 286.046Z" fill="black"/>
<path d="M587.223 208.547H200.235C196.542 208.583 192.966 207.674 190.227 206.004C187.489 204.333 185.79 202.025 185.475 199.545C185.336 198.224 185.605 196.898 186.264 195.65C186.925 194.403 187.962 193.261 189.309 192.298C190.65 191.334 192.269 190.565 194.067 190.04C195.865 189.514 197.804 189.241 199.764 189.238H559.376C566.759 189.243 573.838 191.223 579.057 194.743C584.278 198.262 587.214 203.033 587.223 208.011V208.547Z" fill="#ED7966"/>
<path d="M482.914 287.074H198.099C194.939 287.113 191.879 286.144 189.535 284.362C187.193 282.58 185.739 280.118 185.47 277.472C185.35 276.062 185.581 274.649 186.145 273.318C186.71 271.988 187.597 270.77 188.75 269.742C189.897 268.714 191.283 267.894 192.822 267.333C194.359 266.772 196.018 266.481 197.695 266.478H459.089C465.405 266.485 471.462 268.596 475.928 272.35C480.393 276.104 482.906 281.194 482.914 286.503V287.074Z" fill="#ED7966"/>
<path d="M744.14 289.93C744.94 291.458 746.064 292.79 747.436 293.837C748.806 294.882 750.39 295.615 752.074 295.981C753.759 296.35 755.504 296.343 757.185 295.965C758.867 295.585 760.446 294.841 761.81 293.786L796.912 316.68L796.805 294.908L763.488 276.505C761.563 274.334 758.907 272.942 756.025 272.596C753.143 272.249 750.234 272.973 747.849 274.627C745.464 276.283 743.769 278.754 743.086 281.575C742.403 284.394 742.778 287.368 744.14 289.93Z" fill="#ED7966"/>
<path d="M920.29 662.159H905.231L898.066 604.091L920.293 604.092L920.29 662.159Z" fill="#ED7966"/>
<path d="M924.131 676.752L875.573 676.75V676.136C875.573 671.125 877.565 666.319 881.109 662.777C884.653 659.234 889.46 657.242 894.473 657.242H894.475L924.132 657.244L924.131 676.752Z" fill="#2F2E41"/>
<path d="M845.785 662.159H830.726L823.562 604.091L845.788 604.092L845.785 662.159Z" fill="#ED7966"/>
<path d="M849.627 676.752L801.067 676.75V676.136C801.069 671.125 803.06 666.319 806.604 662.777C810.149 659.234 814.956 657.242 819.968 657.242H819.969L849.627 657.244V676.752Z" fill="#2F2E41"/>
<path d="M828.403 365.848L813.397 515.536L820.9 644.744H849.91L855.774 523.205L878.589 456.745L891.868 559.162V642.55L924.872 644.077L935.825 439.905C935.825 439.905 939.545 382.799 932.121 375.801C924.697 368.805 828.403 365.848 828.403 365.848Z" fill="#141850"/>
<path d="M956.351 230.778L926.022 219.364L920.685 208.544L882.555 209.098L873.917 217.775L844.226 227.496L825.348 372.078C825.348 372.078 883.456 413.594 935.037 384.909L956.351 230.778Z" fill="#303179"/>
<path d="M770.724 303.905L820.629 333.234L862.212 277.63V242.754C862.216 239.53 861.262 236.378 859.473 233.696C857.823 231.218 855.527 229.237 852.835 227.968C850.141 226.698 847.152 226.187 844.19 226.492C841.228 226.796 838.405 227.902 836.025 229.693C833.647 231.483 831.801 233.888 830.689 236.649L809.094 290.289L778.463 281.241L770.724 303.905Z" fill="#303179"/>
<path d="M915.743 382.123C916.046 380.427 916.718 378.818 917.712 377.409C918.705 376 919.996 374.825 921.492 373.969C922.987 373.112 924.654 372.595 926.371 372.452C928.091 372.307 929.819 372.543 931.436 373.139L958.036 340.761L964.478 361.56L938.23 389.117C937.047 391.768 934.934 393.892 932.289 395.088C929.644 396.284 926.651 396.468 923.88 395.606C921.107 394.744 918.748 392.896 917.249 390.41C915.749 387.925 915.213 384.977 915.743 382.123Z" fill="#ED7966"/>
<path d="M955.418 377.026L938.609 360.221L966.369 310.496L926.107 265.384L928.432 247.184C928.966 242.993 930.645 239.032 933.284 235.733C935.579 232.865 938.527 230.586 941.883 229.09C945.237 227.593 948.902 226.922 952.571 227.132C956.239 227.341 959.803 228.426 962.967 230.295C966.13 232.163 968.799 234.762 970.752 237.874L1002.23 307.847L1002.07 308.08L955.418 377.026Z" fill="#303179"/>
<path d="M929.539 170.983C928.375 179.469 923.889 187.146 917.066 192.329C910.242 197.511 901.64 199.772 893.149 198.616C884.658 197.462 876.974 192.984 871.784 186.168C866.594 179.351 864.324 170.755 865.471 162.265L865.533 161.806C866.874 153.432 871.452 145.919 878.283 140.888C885.114 135.859 893.649 133.714 902.047 134.918C910.444 136.121 918.033 140.578 923.174 147.324C928.316 154.071 930.598 162.567 929.529 170.981L929.539 170.983Z" fill="#ED7966"/>
<path d="M921.31 187.628C922.97 184.256 924.677 180.637 924.209 176.908C923.743 173.18 920.086 169.617 916.494 170.724C914.346 171.387 912.722 173.507 910.478 173.615C907.388 173.764 905.616 170.231 904.656 167.292L900.74 155.325C896.978 158.255 892.618 160.318 887.967 161.369C883.316 162.419 878.492 162.431 873.837 161.402C870.2 160.571 866.527 158.95 864.393 155.891C862.261 152.832 862.274 148.089 865.2 145.775C866.634 144.641 868.543 144.21 869.914 143C870.764 142.249 871.35 141.245 871.586 140.135C871.82 139.026 871.691 137.87 871.219 136.84C870.745 135.809 869.953 134.958 868.957 134.412C867.963 133.866 866.82 133.655 865.695 133.811L875.556 132.579L872.619 127.267C873.735 128.026 874.998 128.545 876.326 128.789C877.655 129.032 879.02 128.996 880.334 128.682C882.986 128.204 885.486 127.112 888.081 126.384C894.372 124.778 901.014 125.269 907.001 127.782C912.986 130.295 917.988 134.693 921.246 140.307C923.672 139.496 926.288 139.443 928.746 140.152C931.203 140.861 933.387 142.301 935.008 144.278C937.648 147.628 938.366 152.097 938.469 156.36C938.661 164.763 936.827 173.091 933.124 180.639C932.062 183.036 930.536 185.2 928.634 187.006C927.676 187.901 926.535 188.576 925.288 188.983C924.042 189.39 922.722 189.52 921.42 189.364" fill="#303179"/>
<path d="M1071 679.83H252.691C252.246 679.839 251.811 679.701 251.451 679.437C251.093 679.173 250.832 678.799 250.709 678.37C250.632 678.079 250.623 677.774 250.682 677.479C250.743 677.184 250.869 676.906 251.053 676.668C251.236 676.43 251.473 676.236 251.742 676.103C252.013 675.97 252.31 675.901 252.612 675.901H1070.84C1071.31 675.884 1071.77 676.027 1072.15 676.306C1072.53 676.584 1072.8 676.983 1072.92 677.437C1072.99 677.724 1072.98 678.022 1072.92 678.309C1072.85 678.595 1072.72 678.864 1072.54 679.093C1072.35 679.324 1072.12 679.509 1071.85 679.637C1071.59 679.763 1071.3 679.83 1071 679.83Z" fill="#303179"/>
</svg>
